<svg enable-background="new 0 0 1600 1200" viewBox="0 0 1600 1200" xmlns="http://www.w3.org/2000/svg"><path d="m271.7 1102.6h227.3c3.9 0 3.9-6 0-6-75.8 0-151.6 0-227.3 0-3.9 0-3.9 6 0 6z" fill="#e8e8e8"/><path d="m345.8 1079.1h228.1 64.7c3.9 0 3.9-6 0-6-76 0-152 0-228.1 0-21.6 0-43.2 0-64.7 0-3.8 0-3.8 6 0 6z" fill="#e8e8e8"/><path d="m633.7 1042.1h154.4c3.9 0 3.9-6 0-6-51.5 0-103 0-154.4 0-3.9 0-3.9 6 0 6z" fill="#e8e8e8"/><path d="m765.9 1126.1h321.5 89.9c3.9 0 3.9-6 0-6-107.2 0-214.4 0-321.5 0-30 0-59.9 0-89.9 0-3.9 0-3.9 6 0 6z" fill="#e8e8e8"/><path d="m1019.2 1102.6h212.5c3.9 0 3.9-6 0-6-70.8 0-141.7 0-212.5 0-3.9 0-3.9 6 0 6z" fill="#e8e8e8"/><path d="m459.3 374.6c-5.2.9-13.4 3-22 8.3-5.4 3.3-16.4 11.3-23.3 26-2.5 5.2-8.1 17.3-5.3 32.3 4.1 22.2 23.6 33.3 26.7 35 9.9-15.1 19.7-30.3 29.6-45.4-2-18.7-3.9-37.4-5.7-56.2z" fill="#ec615b"/><path d="m466.7 429c14.6-7.9 29.1-15.8 43.7-23.8 3.2 4 9.2 12.9 9.1 24.9 0 2.7-.3 5.2-.8 7.5-17.4-2.9-34.7-5.8-52-8.6z" fill="#5222d0"/><path d="m310.1 498c1.8 23.5 3.5 47.1 5.3 70.6 6.4-.4 12.8-.9 19.1-1.3-2.1-23.9-4.2-47.7-6.3-71.6-6.1.8-12.1 1.5-18.1 2.3z" fill="#5222d0"/><path d="m345.8 522.5c1 14.5 2 28.9 3.1 43.4 6.4-.6 12.8-1.1 19.1-1.7-1.4-14.5-2.7-28.9-4.1-43.4-6.1.5-12.1 1.1-18.1 1.7z" fill="#ec615b"/><path d="m573.3 612.1c-99.2 9.1-198.3 18.1-297.5 27.2-9.1-145.2-18.3-290.4-27.4-435.7 98.9-3.5 197.9-7 296.8-10.5 9.4 139.7 18.8 279.4 28.1 419z" fill="none" stroke="#161616" stroke-miterlimit="10" stroke-width="2"/><g fill="#e8e8e8"><path d="m350.7 176.1c1.1 7.9 2.3 15.8 3.4 23.7.3 1.9 3.2 1.1 2.9-.8-1.1-7.9-2.3-15.8-3.4-23.7-.3-1.9-3.2-1.1-2.9.8z"/><path d="m352.8 175.9c22.5-1.5 45.1-2.4 67.6-2.9 1.9 0 1.9-3 0-3-22.6.5-45.1 1.5-67.6 2.9-1.9.1-1.9 3.1 0 3z"/><path d="m419.5 171.8c1 8.5 1.8 16.9 2.3 25.4.1 1.9 3.1 1.9 3 0-.5-8.5-1.3-17-2.3-25.4-.3-1.9-3.3-1.9-3 0z"/><path d="m352.9 175.8c.7 7.4 1.4 14.9 2.1 22.3.1.8.6 1.5 1.5 1.5 21.5.2 42.9-3.2 64.5-2.5 1.9.1 1.9-2.9 0-3-21.5-.7-42.9 2.6-64.5 2.5l1.5 1.5c-.7-7.4-1.4-14.9-2.1-22.3-.2-1.9-3.2-1.9-3 0z"/><path d="m354.5 176.8c3.3 2 7.6 1 11.2.8 6-.3 12-.6 18-.9 12-.6 23.9-1.3 35.9-1.9-.5-.5-1-1-1.5-1.5.3 6.5.6 13 .9 19.6.1 1.9 3.1 1.9 3 0-.3-6.5-.6-13-.9-19.6 0-.8-.7-1.5-1.5-1.5-10.6.6-21.3 1.1-31.9 1.7-5.3.3-10.6.6-16 .8-4.2.2-12 2.2-15.7-.1-1.6-1-3.1 1.6-1.5 2.6z"/><path d="m354.4 177.4c1.5 6.1 2.5 12.3 3.1 18.6 1-.1 2-.3 2.9-.4-1.1-5.4-.8-10.7.2-16.2-1-.1-2-.3-2.9-.4.2 6 .6 11.7 2.9 17.2.7 1.6 3.2.4 2.7-1.2-1.7-6.4-3.3-12.7-1.6-19.3-1 0-1.9 0-2.9 0 .9 6 1.8 12 2.7 18 .3 1.9 3.2 1.1 2.9-.8-.9-6-1.8-12-2.7-18-.2-1.5-2.6-1.3-2.9 0-1.8 7.1-.2 14 1.6 20.9.9-.4 1.8-.8 2.7-1.2-2.1-5-2.3-10.4-2.5-15.7 0-1.6-2.6-2.1-2.9-.4-1.1 6-1.5 11.8-.2 17.8.3 1.6 3.1 1.3 2.9-.4-.6-6.5-1.7-13-3.2-19.4-.4-1.8-3.2-1-2.8.9z"/><path d="m362.1 182.7c1.1-1.8 2.2-3.6 3.3-5.4-.9-.5-1.7-1-2.6-1.5-1.3 2.9-2.5 5.8-3.8 8.7-.6 1.4 1.2 3.3 2.4 1.8 2-2.5 3.9-5.1 5.9-7.6-.8-.5-1.7-1-2.5-1.5-.8 2.4-1.8 4.6-3.2 6.8-.9 1.4 1.3 3.2 2.4 1.8 1.5-1.9 3-3.8 4.6-5.7-.8-.6-1.6-1.2-2.4-1.8-2 4.7-4 9.3-6 14-.6 1.4 1.2 3.3 2.4 1.8 3.6-4.5 7.3-9.1 10.9-13.6-.8-.6-1.6-1.2-2.4-1.8-2.7 4.4-5.4 8.9-8.1 13.3-.7 1.1.4 2.6 1.7 2.2 1.6-.5 1.8-.7 3-1.7-.8-.5-1.7-1-2.5-1.5-.6 1.7-1.6 3-3.1 4.1s-.2 3.6 1.5 2.6c1.6-.9 3.1-1.5 4.9-1.7-.6-.6-1.2-1.2-1.8-1.8-2.6-1.3-3.4-3.1-2.4-5.5.3-1.3.8-2.5 1.4-3.6.8-1.4 2.3-4.8 3.8-1.8 1.1 2.2-3.5 14.5-4.1 6.9-.1-2 .1-4 .7-5.8.4-1.4 1-2.7 1.7-4 1-2 1.5-2 1.6 0 1.9 4-.4 10.3-2.3 13.8.9.1 1.8.2 2.7.4-.8-2.8-1.1-5.5-.5-8.3.2-1.1 1.2-6.4 2.3-4.7 2.3 3.3-1.5 10.8-3.1 13.7.9.3 1.9.5 2.8.8-.3-2.7-.4-5.3.1-8 .3-1.8 1.4-7.6 3.3-7.8 2.7-.3-2.5 12-3.7 13.8.9.1 1.8.2 2.7.4-.9-4.5-.9-14.1 5.2-15.6-.6-.3-1.2-.7-1.8-1 1.1 6.1-.6 12-4.8 16.5.8.2 1.7.4 2.5.7-.7-2.8-.8-5.5-.1-8.3.4-1.5 2.5-7.8 4.5-7.3 1.4.3-.4 6.1-.8 7.4-1.1 3.2-2.8 6-5.3 8.4.8.2 1.7.4 2.5.7-1.6-6.7 1.2-13.4 7.1-17-.7-.3-1.5-.6-2.2-.9 2.3 6.1-3.6 14-7.5 18.1.8.2 1.7.4 2.5.7-.7-2.9-.7-5.7.2-8.6.3-.9 3.3-7.7 4.7-7.2 2 .7-1.4 6.8-2 7.7-.7 1.3-2 3.6-3.3 4.4-1.5 1-1.4 1.2-1.5-1-.1-3 1.9-6.4 3.6-8.6.9-1.2 2.4-3.1 3.8-3.6 1.6-.7 1.4-.9 1.2 1.2-.7 6.2-4.2 11.8-8.6 16.1.8.2 1.7.4 2.5.7-.9-5.9 1.1-12 5.5-16.1 1.3-1.2 2.8-2 3.3.5.2 1-1 3.4-1.4 4.3-1.4 3.3-3.4 6.1-5.9 8.6h2.1c-1.8-2.1.5-6.7 1.6-8.7.5-.9 4.8-7.5 6-6.9 1.4.7-1.7 7.4-2.1 8.1-1.4 2.7-3.2 5.1-5.3 7.3.9.4 1.7.7 2.6 1.1.1-7.3 3.5-13.5 9.7-17.4-.8-.4-1.5-.9-2.3-1.3.1 6.7-2.3 12.6-7.1 17.3.9.4 1.7.7 2.6 1.1.6-7.3 4-13.6 9.6-18.3-.8-.1-1.6-.2-2.4-.3 3.2 4.8-3.8 13.8-6.6 17.4.9.4 1.7.7 2.6 1.1.1-2.8.6-5.4 1.7-8 .6-1.6 3.1-7.1 4.9-7.5 2.4-.5-.1 4.1-.9 5.8-1.4 2.9-3.3 5.4-5.5 7.7.8.5 1.7 1 2.5 1.5.9-6.2 3.4-14.4 9.9-16.7-.6-.5-1.3-1-1.9-1.4-.8 6.8-3.8 12.6-8.8 17.2.9.4 1.7.7 2.6 1.1.3-3.2 1-6.3 2.4-9.3.9-1.9 3.3-6.9 5.5-7.3 1.1-.2 0 1.5-.4 2.6-.6 1.6-1.4 3.1-2.2 4.5-1.6 2.8-3.6 5.3-5.9 7.6.9.4 1.7.7 2.6 1.1.4-6.4 3.4-11.9 8.4-15.8-.7-.6-1.5-1.1-2.2-1.7-.8 4.7-3.2 8.4-6.4 11.9-1.9 2.1-2.5 1.6-2.7-1.2-.2-3.8 2.1-7.6 5.9-8.6-.6-.5-1.3-1-1.9-1.4-.3 6-2.1 11.4-5.3 16.4.9.3 1.9.5 2.8.8.3-3 1.1-5.9 2.5-8.6.9-1.8 3.2-6.3 5.2-6.8 2.9-.8 0 4.9-.7 6.3-1.4 2.8-3.3 5.2-5.5 7.5.9.4 1.7.7 2.6 1.1-.4-7.3 4-13.7 10.9-15.9-.6-.5-1.3-1-1.9-1.4-.8 7.1-4.2 13.1-9.7 17.7.9.4 1.7.7 2.6 1.1.8-6.9 4.3-12.8 10-16.8-.7-.3-1.5-.6-2.2-.9 1.6 5.2-3.9 12-6.9 15.7.9.4 1.7.7 2.6 1.1.4-5.1 3.3-14.4 9.4-15.3-.6-.6-1.2-1.2-1.8-1.8-1.1 5.7-3.4 10.8-7.1 15.3.9.4 1.7.7 2.6 1.1.3-6.1 2.7-11.4 6.9-15.7-.8-.1-1.6-.2-2.4-.3 2.3 4.2-2.4 11.6-4.5 15.3l2.7 1.2c1-4.8 1.8-12.9 6.3-15.8-.6-.1-1.2-.2-1.8-.2 2.5 2.8-2.3 12.2-3.4 15 1 .3 1.9.5 2.9.8 1.4-5.1 2.7-10.1 4.1-15.2-1-.1-2-.3-2.9-.4.2 4.8-.5 9.3-2.1 13.9 1 .1 2 .3 2.9.4.5-4.5 0-11.5 2.6-15.3-.9-.1-1.8-.2-2.7-.4 1.4 4.9.9 9.6.2 14.7 1 .1 2 .3 2.9.4-.4-5.6-.8-11.3-1.2-16.9-.9.4-1.7.7-2.6 1.1 3.8 3.9 2.3 9 .6 13.5.9-.1 1.8-.2 2.7-.4-1.1-2.1-3.3-5.6-3.2-8.1-1-1.6-.6-2.4 1.3-2.3.9 1.6 1.2 3.3.8 5 .9-.4 1.7-.7 2.6-1.1-1.6-1.9-2.4-3.7-2.9-6-.7.6-1.5 1.1-2.2 1.7.4 1.1.8 2.3 1.2 3.4.9.1 1.8.2 2.7.4-.7-2-1-3.8-.9-5.9-.6.5-1.3 1-1.9 1.4 3.9 1.6 1.2 12 .7 14.7.5-.4 1-.7 1.4-1.1-7.6.2-15.2.4-22.8.6-1.9.1-1.9 2.9 0 3 6.7.2 13.3-.8 19.9-1.8-.3-1-.5-1.9-.8-2.9-7.8 2.1-15.6 3.5-23.6 4.1-1.9.1-1.9 2.9 0 3 7.8.3 15.4-2.4 23.2-2.1-.1-1-.3-2-.4-2.9-6 2-12 2.6-18.3 1.9v3c7.2-.7 14.4-1.4 21.6-2.1-.1-1-.3-2-.4-2.9-4.8 1.4-9.5 1.9-14.5 1.7v3c4.9 0 9.6-.6 14.3-1.8 1.9-.5 1.1-3.3-.8-2.9-5.6 1.2-11.2 1.8-16.9 1.8v3c6.8-.9 13.6-2 20.4-3.4 1.6-.3 1.3-3.1-.4-2.9-6.5.8-12.9.7-19.3-.3-1.9-.3-2.7 2.6-.8 2.9 6.7 1 13.4 1.2 20.1.4-.1-1-.3-2-.4-2.9-6.5 1.3-13 2.5-19.6 3.3-1.9.2-2 3 0 3 6 0 11.8-.6 17.7-1.9-.3-1-.5-1.9-.8-2.9-4.5 1.1-8.9 1.7-13.5 1.7-1.9 0-1.9 2.9 0 3 5.2.2 10.2-.4 15.3-1.8 1.6-.5 1.3-3.1-.4-2.9-7.2.7-14.4 1.4-21.6 2.1-1.9.2-1.9 2.8 0 3 6.6.7 12.9 0 19.1-2 1.6-.5 1.3-2.9-.4-2.9-7.8-.3-15.4 2.4-23.2 2.1v3c8.3-.6 16.4-2 24.4-4.2 1.9-.5 1.1-3.2-.8-2.9-6.4 1-12.7 1.9-19.1 1.7v3c7.6-.2 15.2-.4 22.8-.6.6 0 1.3-.5 1.4-1.1 1-5.6 4.1-15.5-2.8-18.4-1-.4-1.8.6-1.9 1.4-.2 2.5.1 4.4 1 6.7.4 1.1 2.1 1.6 2.7.4 1.4-2.9.6-5.8-2.3-7.5-1.2-.7-2.5.4-2.2 1.7.6 2.9 1.8 5.1 3.7 7.4.9 1.1 2.5.1 2.6-1.1.3-3.2-2.5-12.7-7.6-9.8-4.6 2.7 1.5 13.6 3 16.7.6 1.3 2.3.7 2.7-.4 2.2-5.7 3.2-11.7-1.4-16.4-.9-.9-2.7-.3-2.6 1.1.4 5.6.8 11.3 1.2 16.9.1 1.6 2.7 2.2 2.9.4.8-5.5 1.4-10.8-.2-16.3-.4-1.3-2-1.4-2.7-.4-3.1 4.4-2.5 11.7-3 16.8-.2 1.8 2.4 1.9 2.9.4 1.7-4.8 2.4-9.6 2.2-14.7-.1-1.7-2.5-2.1-2.9-.4-1.4 5.1-2.7 10.1-4.1 15.2-.5 1.9 2.2 2.6 2.9.8 1.8-4.6 6.6-13.4 2.6-18-.4-.5-1.3-.6-1.8-.2-5.5 3.6-6.5 11.7-7.7 17.6-.3 1.6 1.9 2.7 2.7 1.2 2.7-4.9 7.5-12.8 4.5-18.4-.5-.8-1.7-1-2.4-.3-4.8 5-7.4 10.9-7.8 17.8-.1 1.2 1.7 2.1 2.6 1.1 4.1-4.9 6.7-10.4 7.9-16.6.2-1.2-.7-2-1.8-1.8-7.5 1.1-11.1 11.7-11.6 18.2-.1 1.3 1.7 2 2.6 1.1 3.9-4.7 9.7-12.1 7.7-18.6-.3-.9-1.4-1.5-2.2-.9-6.6 4.6-10.6 11.3-11.5 19.3-.2 1.4 1.7 1.8 2.6 1.1 6.1-5.1 9.6-12 10.5-19.8.1-1-1-1.7-1.9-1.4-8.2 2.6-13.6 10.2-13.1 18.8.1 1.3 1.6 2 2.6 1.1 2.3-2.3 14.3-18.6 6.8-20.4-3.1-.8-6.6 4-8.1 6-3.1 4.1-4.7 8.8-5.3 13.9-.2 1.6 2.1 1.9 2.8.8 3.6-5.4 5.5-11.4 5.8-17.9 0-1-1-1.7-1.9-1.4-4.1 1.1-6.6 4.1-7.6 8.2-.7 2.6-1.4 7.5 1.4 9.2 2.7 1.7 4.9-1.3 6.4-3.1 3.2-3.7 5.8-7.7 6.6-12.6.2-1.1-1-2.6-2.2-1.7-6 4.6-9.4 10.9-9.9 18.4-.1 1.3 1.7 1.9 2.6 1.1 2.4-2.4 15.2-18.2 8.3-20.8-3.1-1.2-6.4 3.8-7.8 5.8-3.1 4.4-4.6 9.3-5.1 14.6-.1 1.4 1.7 1.9 2.6 1.1 5.6-5.2 8.9-11.7 9.7-19.3.1-.9-1-1.7-1.9-1.4-7.6 2.7-10.9 11.4-12 18.8-.2 1.4 1.4 2.7 2.5 1.5 2.4-2.5 13.8-18.2 6.8-20.2-3.2-.9-6.7 4.6-8.1 6.8-2.6 4-3.8 8.6-4 13.3-.1 1.2 1.7 2.1 2.6 1.1 3.8-4.7 11.2-14.7 7.1-21-.6-.9-1.6-.9-2.4-.3-6.2 5.2-9.8 12.4-10.5 20.5-.1 1.3 1.7 1.9 2.6 1.1 5.3-5.3 8-12 7.9-19.4 0-1.1-1.3-1.9-2.3-1.3-7.1 4.4-11.1 11.7-11.2 20 0 1.3 1.7 2 2.6 1.1 3.8-4 6.9-8.8 8.2-14.2.6-2.3 1-6.8-2.7-6.6-3.9.2-8 7-9.4 10-1.5 3.4-3.1 7.8-.4 10.9.5.6 1.6.5 2.1 0 4-3.9 7-8.8 8.1-14.3.5-2.5.7-6.7-2.9-6.7-3.8 0-7.9 5.6-9.4 8.5-2.4 4.3-3 9-2.2 13.8.2 1.2 1.8 1.4 2.5.7 4.5-4.4 7.8-9.9 9.2-16.1.6-2.7 1.4-7.3-2.6-7.2-6.9.2-16.4 17.5-9.9 22 .5.3 1.1.2 1.5 0 3.5-1.7 15.9-18.5 8.3-20.7-3.2-1-6.8 4.4-8 6.7-2.3 4.3-2.8 9-1.7 13.6.2 1.1 1.8 1.5 2.5.7 4.7-5 11-13.9 8.3-21-.3-.9-1.3-1.4-2.2-.9-7.1 4.3-10.4 12.4-8.5 20.4.3 1.1 1.7 1.4 2.5.7 4-3.9 6.2-8.8 7.2-14.3.4-2.4 1.3-6.8-1.8-7.8-3.3-1-6.4 4.6-7.5 7-2 4.3-2.3 9-1.2 13.7.3 1.1 1.7 1.5 2.5.7 5-5.4 7-12.2 5.6-19.4-.2-.8-1.1-1.2-1.8-1-7.8 1.9-8.6 12.9-7.3 19.3.3 1.4 2.1 1.3 2.7.4 2.6-3.7 4.3-7.8 4.7-12.4.2-2.2.8-6.8-2.2-7.6s-4.8 3.6-5.7 5.7c-2.1 4.7-2.6 9.7-2 14.8.2 1.4 2 2.2 2.8.8 3.1-5.4 5.7-13.5 2.9-19.5-.2-.5-.8-.8-1.3-.7-7.4.1-7 14.2-5.7 18.9.3 1.2 2.1 1.5 2.7.4 2.8-4.9 4.6-12.1 2.2-17.6-1.7-3.9-4.8-2.1-6.7.8-2.7 4.2-4.4 12.1-1.7 16.7 2.1 3.6 4.8.9 6.3-1.8 1.8-3.3 4.7-11.4 1.7-14.9-2.7-3.1-6.2 1.2-7.7 3.4-2.3 3.5-4.5 9.9-1.6 13.7 2.2 2.9 6.2 2.3 7.4-1 .5-1.2-.8-2-1.8-1.8-2.1.3-3.8.9-5.6 2 .5.9 1 1.7 1.5 2.6 2.1-1.6 3.5-3.4 4.5-5.9.6-1.5-1.5-2.3-2.5-1.5-.6.3-1.1.6-1.7.9.6.7 1.1 1.5 1.7 2.2 2.7-4.4 5.4-8.9 8.1-13.3.9-1.4-1.3-3.2-2.4-1.8-3.6 4.5-7.3 9.1-10.9 13.6.8.6 1.6 1.2 2.4 1.8 2-4.7 4-9.3 6-14 .6-1.4-1.2-3.3-2.4-1.8-1.5 1.9-3 3.8-4.6 5.7.8.6 1.6 1.2 2.4 1.8 1.5-2.4 2.6-4.8 3.5-7.5.4-1.4-1.6-2.7-2.5-1.5-2 2.5-3.9 5.1-5.9 7.6.8.6 1.6 1.2 2.4 1.8 1.3-2.9 2.5-5.8 3.8-8.7.8-1.7-1.6-3.2-2.6-1.5-1.1 1.8-2.2 3.6-3.3 5.4-1.3-.6 1.3.9 2.3-.8z"/><path d="m416.4 174.2c0 3.4.1 6.9.2 10.3.1 2.5 1.2 7.8-.4 9.7-1 1.2.3 3.3 1.8 2.4.7-.5.9-.6 1.5-1.2.6-.8.5-2.2-.7-2.5-1.8-.4-3.1-.4-4.9.2s-1.1 3.5.8 2.9c1.1-.1 2.2-.1 3.3-.2-.2-.8-.4-1.7-.7-2.5-.3.3-.6.5-.8.8.6.8 1.2 1.6 1.8 2.4 2.2-2.6 1.6-4.4 1.4-7.9-.2-4.7-.3-9.5-.3-14.2 0-2.2-3-2.2-3-.2z"/><path d="m268.5 261.3c41.1-2.3 82.3-3.2 123.5-2.7 1.9 0 1.9-3 0-3-41.2-.5-82.4.4-123.5 2.7-1.9.1-1.9 3.1 0 3z"/><path d="m273.8 288.7c29.5-3.1 59.1-4.7 88.7-4.7 1.9 0 1.9-3 0-3-29.6 0-59.2 1.5-88.7 4.7-1.9.2-2 3.2 0 3z"/><path d="m276.5 339.8c39.4-4.1 78.9-6.4 118.5-6.7 1.9 0 1.9-3 0-3-39.6.3-79.1 2.6-118.5 6.7-1.9.2-1.9 3.2 0 3z"/><path d="m438.3 476.6c-19.4-7.5-30.9-29-29-49.4 2-20.7 17.4-38.4 35.9-46.7 12.7-5.7 26.7-6.9 39.2-.2 9.8 5.2 18.2 13.2 24.1 22.6 12.3 19.6 11.4 43.3-1.6 62.5-7.8 11.5-22.5 14.8-35.4 16.8-12.8 2-26.3 1.3-37.1-6.6-1.6-1.1-3.1 1.5-1.5 2.6 10 7.3 22.3 8.8 34.3 7.6 11.9-1.2 26-3.8 35.6-11.4 9.5-7.5 15.2-21.7 17.2-33.3 1.9-11.1-.2-22.3-4.9-32.5-10.5-22.7-34.7-40.9-60.4-34.6-22.2 5.4-41.8 23.3-47.2 45.8-5.8 23.9 6.7 50.6 29.9 59.6 1.9.8 2.7-2.1.9-2.8z"/><path d="m459.4 374.5c1.2 18.5 2.4 37 3.7 55.5.1 1.9 3.1 1.9 3 0-1.2-18.5-2.4-37-3.7-55.5-.1-1.9-3.1-1.9-3 0z"/><path d="m465.9 431.8c15.2-8.3 30.2-17 45-26.2 1.6-1 .1-3.6-1.5-2.6-14.7 9.2-29.7 17.9-45 26.2-1.7 1-.2 3.6 1.5 2.6z"/><path d="m466.5 432.3c17.2 0 34.2 4.1 51.1 7 1.9.3 2.7-2.6.8-2.9-17.1-2.9-34.4-7.1-51.9-7.1-1.9 0-1.9 3 0 3z"/><path d="m463.9 430.3c-9.6 15.9-19.2 31.7-28.9 47.6-1 1.7 1.6 3.2 2.6 1.5 9.6-15.9 19.2-31.7 28.9-47.6 1-1.6-1.6-3.2-2.6-1.5z"/><path d="m293.6 572c43.5-3.3 86.9-7.1 130.2-11.6 1.9-.2 1.9-3.2 0-3-43.4 4.4-86.8 8.3-130.2 11.6-1.9.2-1.9 3.2 0 3z"/><path d="m308.4 498.3c1.6 23 3.3 46.1 4.9 69.1.1 1.9 3.1 1.9 3 0-1.6-23-3.3-46.1-4.9-69.1-.2-1.9-3.2-1.9-3 0z"/><path d="m311.3 498.6c5.7-1 11.4-1.3 17.2-1-.5-.5-1-1-1.5-1.5 1.5 23.4 3.7 46.7 6.4 69.9.2 1.9 3.2 1.9 3 0-2.8-23.2-4.9-46.6-6.4-69.9-.1-.8-.6-1.5-1.5-1.5-6.1-.3-12 .1-18 1.1-1.9.4-1 3.3.8 2.9z"/><path d="m342.8 522c2.3 13.9 3.7 28 4.2 42.1.1 1.9 3.1 1.9 3 0-.5-14.4-1.9-28.7-4.3-42.9-.3-1.9-3.2-1.1-2.9.8z"/><path d="m346.4 523.5c5.8 0 11.5-.3 17.2-1.1-.5-.5-1-1-1.5-1.5 1.4 13.9 2.9 27.7 4.3 41.6.2 1.9 3.2 1.9 3 0-1.4-13.9-2.9-27.7-4.3-41.6-.1-.7-.6-1.6-1.5-1.5-5.7.7-11.5 1.1-17.2 1.1-1.9 0-1.9 3 0 3z"/><path d="m378.4 498.1c2.4 21.6 3.9 43.2 4.5 65 .1 1.9 3.1 1.9 3 0-.7-21.7-2.2-43.4-4.5-65-.2-1.9-3.2-1.9-3 0z"/><path d="m379.9 499.3c3.2.2 6.5.3 9.7.5 4.5.2 4.6.3 4.7 4.8.3 6.5.6 12.9 1 19.4.9 12.4 2.3 24.7 4.6 36.9.4 1.9 3.2 1.1 2.9-.8-2.9-15.4-4.3-31.1-5.1-46.8-.2-3.6-.3-7.1-.5-10.7-.1-1.4.1-3.5-1-4.7-1.2-1.2-3.3-1-4.8-1.1-3.9-.2-7.7-.4-11.6-.6-1.8 0-1.8 3 .1 3.1z"/><path d="m418.8 593.3c38.6-2.7 77.1-7.6 115.1-14.7 1.9-.4 1.1-3.2-.8-2.9-37.8 7.1-76 11.9-114.3 14.6-2 .1-2 3.1 0 3z"/><path d="m477.6 574.2c16.4-1.7 32.9-3.4 49.3-5.1 1.9-.2 1.9-3.2 0-3-16.4 1.7-32.9 3.4-49.3 5.1-1.9.2-1.9 3.2 0 3z"/><path d="m505.6 554.2c7.5-.3 15.1-.6 22.6-.9 1.9-.1 1.9-3.1 0-3-7.5.3-15.1.6-22.6.9-2 .1-2 3.1 0 3z"/><path d="m426.4 217.9c1.9 5.5 2.7 11.1 2.4 16.9-.1 1.9 2.9 1.9 3 0 .3-6.1-.5-11.9-2.5-17.7-.7-1.8-3.6-1-2.9.8z"/><path d="m428.9 218.2c27.5-2.8 55-4.6 82.6-5.5 1.9-.1 1.9-3.1 0-3-27.6.9-55.2 2.7-82.6 5.5-1.9.2-1.9 3.2 0 3z"/><path d="m431.8 236.4c27.4-2 54.7-4 82.1-6 1.9-.1 1.9-3.1 0-3-27.4 2-54.7 4-82.1 6-1.9.1-1.9 3.1 0 3z"/><path d="m511.9 213.2c.9 6.2 1.8 12.3 2.7 18.5.3 1.9 3.2 1.1 2.9-.8-.9-6.2-1.8-12.3-2.7-18.5-.3-1.9-3.2-1.1-2.9.8z"/><path d="m995.5 294.6c.1 3.8.3 7.5.8 11.3.3 1.9 3.3 1.9 3 0-.5-3.7-.8-7.5-.8-11.3 0-1.9-3-1.9-3 0z"/><path d="m997.7 296.1h194.1c1.9 0 1.9-3 0-3-64.7 0-129.4 0-194.1 0-1.9 0-1.9 3 0 3z"/><path d="m1190 295.8v6.6c0 1.9 3 1.9 3 0 0-2.2 0-4.4 0-6.6 0-2-3-2-3 0z"/><path d="m999.5 307h191.6c1.9 0 1.9-3 0-3-63.9 0-127.8 0-191.6 0-2 0-2 3 0 3z"/><path d="m999.2 260.1c2.5 11.3 4.6 22.7 6.3 34.1.3 1.9 3.2 1.1 2.9-.8-1.8-11.4-3.9-22.8-6.3-34.1-.5-1.9-3.3-1.1-2.9.8z"/><path d="m1001 259.9c13.1.4 26.8 2 39.9.4 1.9-.2 1.9-3.2 0-3-13.1 1.6-26.8 0-39.9-.4-1.9-.1-1.9 2.9 0 3z"/><path d="m1039.4 260.9c-1.4 10.8-2.7 21.6-4.1 32.5-.2 1.9 2.8 1.9 3 0 1.4-10.8 2.7-21.6 4.1-32.5.2-1.9-2.8-1.9-3 0z"/><path d="m1015.9 256.6c-2-.9-4.4-1.8-5.9-3.4-2.6-2.6-2.4-6.1-2.8-9.5-.6-4.5-3.1-8.5-3.4-13.1-.8.4-1.5.9-2.3 1.3 9.3 6 17.5 14.5 17.2 26.3-.1 1.9 2.9 1.9 3 0 .4-12.9-8.5-22.3-18.7-28.9-.9-.6-2.3.2-2.3 1.3.2 2.7 1 5.1 1.9 7.7 1.3 3.6 1.3 7.1 2 10.8 1.1 5.5 4.9 7.9 9.7 10.1 1.8.7 3.3-1.8 1.6-2.6z"/><path d="m1018.8 243.8c-1.1-7.6 3.9-14.9 6.7-21.6 2.2-5.3 3.8-10.7 3.5-16.5-1 .1-2 .3-2.9.4 3.7 17.3 8.3 33.7.4 50.7-.8 1.7 1.8 3.3 2.6 1.5 3.6-7.8 5.5-16.2 5.1-24.8-.5-9.5-3.2-18.9-5.2-28.2-.3-1.7-3-1.3-2.9.4.6 13.9-12.2 25.1-10.1 38.9.2 1.9 3.1 1.1 2.8-.8z"/><path d="m1067.7 185.9c1.2 36.4 1.6 72.7.9 109.1 0 1.9 3 1.9 3 0 .6-36.4.3-72.8-.9-109.1 0-2-3-2-3 0z"/><path d="m1070 186.4c4.3-3.6 11.6-2 16.4-.5 1.8.6 2.6-2.3.8-2.9-6.1-1.9-14.1-3.1-19.3 1.3-1.5 1.2.6 3.3 2.1 2.1z"/><path d="m1085.2 185.9c.2 35.9.4 71.7.6 107.6 0 1.9 3 1.9 3 0-.2-35.9-.4-71.7-.6-107.6 0-2-3-2-3 0z"/><path d="m1072.2 210.1c4-3.3 9.9-3 13.6.5 1.4 1.3 3.5-.8 2.1-2.1-5-4.7-12.6-4.8-17.8-.5-1.5 1.2.6 3.3 2.1 2.1z"/><path d="m1070.9 198.6c4.4-3.8 10.7-3.9 15.3-.4 1.6 1.2 3-1.5 1.5-2.6-5.8-4.3-13.6-3.7-19 .9-1.4 1.3.8 3.4 2.2 2.1z"/><path d="m1088.3 211.6c4.5 0 8.9.5 13.3 1.6-.4-.5-.7-1-1.1-1.4.6 27 .3 53.9-1.1 80.9-.1 1.9 2.9 1.9 3 0 1.4-26.9 1.7-53.9 1.1-80.9 0-.6-.5-1.3-1.1-1.4-4.7-1.2-9.3-1.7-14.1-1.7-2-.1-2 2.9 0 2.9z"/><path d="m1089 240c4-2.6 8.8-2.7 12.9-.3 1.7 1 3.2-1.6 1.5-2.6-5-3-11.1-2.9-15.9.3-1.6 1-.1 3.6 1.5 2.6z"/><path d="m1088.5 225.7c3.5-1.7 7.5-1.8 11.1-.3 1.8.7 3.3-1.8 1.5-2.6-4.7-2-9.5-1.9-14.1.3-1.7.9-.2 3.5 1.5 2.6z"/><path d="m1110.1 293c0-1.7-1.1-7.9-.1-9.1 1.4-1.7 9.1-1.1 11.1-1.2 6.9-.4 13.9-.7 20.8-.8 13.9-.2 27.8.3 41.6 1.4-.5-.5-1-1-1.5-1.5.6 4.5.9 9 .8 13.6 0 1.9 3 1.9 3 0 0-4.6-.2-9.1-.8-13.6-.1-.9-.6-1.4-1.5-1.5-17.1-1.3-34.4-1.7-51.5-1.1-4 .1-7.9.3-11.9.6-2.9.2-8.3-.4-11 .9-3.9 1.8-2.1 9.1-2 12.4 0 1.8 3 1.9 3-.1z"/><path d="m1120.4 279.3c-.2-1.1-1.2-4.4-1-5.5.7-3 3.6-2.3 5.8-2.3 3.6-.1 7.3-.1 10.9-.2 7.6-.1 15.2-.3 22.9-.4 7.3-.1 14.6-.3 21.9-.4 4-.1 8-.1 11.9-.2 2.8 0 4.4-1 5.3 2.6.4 1.6.1 3.7 0 5.3-.1 1.9 2.9 1.9 3 0 .1-2.6.9-7.7-1.2-9.9-1.9-1.9-5.8-1-8.1-.9-11.3.2-22.5.4-33.8.6-10.9.2-21.9.4-32.8.6-2.2 0-6.9-.9-8.5 1.1-1.9 2.3.4 8 .8 10.5.4 1.8 3.3 1 2.9-.9z"/><path d="m1182.9 283.2c4.5.1 9.1.2 13.6-.1 2.2-.2 4.4-1 4.2-3.6-.2-1.9-3.2-1.9-3 0 .1 1.1-13.5.8-14.8.7-1.9-.1-1.9 2.9 0 3z"/><path d="m1129.2 269.2c-.1-1.7-.6-4-.4-5.7.2-2-.3-2.3 2-2.6 3.2-.4 7.3.7 10.5.9 6.7.5 13.5.8 20.2.9s13.5.1 20.2-.2c3-.1 6.6-.9 9.6-.5 1.4-.6 2.5-.2 3.2 1.1 1.1.5 1.5 1.4 1.4 2.5.3.8.4 1.8.7 2.7.7 1.8 3.6 1 2.9-.8-.9-2.2-.3-5.5-2.1-7.4-1.6-1.7-3.9-1.3-6.1-1.2-9.9.5-19.9.8-29.8.7-9.6-.2-19.2-.7-28.8-1.6-2-.2-5.1-1-6.5 1-1.6 2.4-.2 7.5 0 10.1.2 2 3.2 2 3 .1z"/><path d="m1205.9 368.2v44.5c0 1.9 3 1.9 3 0 0-14.8 0-29.7 0-44.5 0-1.9-3-1.9-3 0z"/><path d="m1208.4 368.2h78c1.9 0 1.9-3 0-3-26 0-52 0-78 0-1.9 0-1.9 3 0 3z"/><path d="m1285 367.2v44.5c0 1.9 3 1.9 3 0 0-14.8 0-29.7 0-44.5 0-1.9-3-1.9-3 0z"/><path d="m1207.4 415.2h78c1.9 0 1.9-3 0-3-26 0-52 0-78 0-1.9 0-1.9 3 0 3z"/><path d="m1241.4 365.2c0-2.6.2-5 .9-7.5.3-1.1.7-2.8 1.4-3.6.3-1 1-1.3 2.2-.9 1.6-.7 2.4-.2 2.5 1.6 1.2 4.2 1.4 9 2 13.4.3 1.9 3.2 1.1 2.9-.8-.6-4.4-.8-9.1-2-13.4-.6-2.4-2.4-4.9-5.1-5.1-6.7-.4-7.9 11.8-7.9 16.3.2 1.9 3.2 1.9 3.1 0z"/><path d="m1210.8 374.7v33c0 1.9 3 1.9 3 0 0-11 0-22 0-33 0-1.9-3-1.9-3 0z"/><path d="m1213.9 374.7h68c1.9 0 1.9-3 0-3-22.7 0-45.4 0-68 0-1.9 0-1.9 3 0 3z"/><path d="m1280 373.7v35c0 1.9 3 1.9 3 0 0-11.7 0-23.3 0-35 0-1.9-3-1.9-3 0z"/><path d="m1212.9 409.2h65c1.9 0 1.9-3 0-3-21.7 0-43.4 0-65 0-1.9 0-1.9 3 0 3z"/><path d="m1215.7 395.9c2.2-3.2 4.2-3.9 5.9-2.3.3.2.5.4.8.6.7.3 1.2.8 1.9 1 1.2.4 2.6.3 3.8-.2.9-.4 1.7-1.1 2-2.1.5-1.6-.7-1.9-.8-3.3-.5-.6-.3-1.2.6-2 .2-2.3 1.6-2.8 4-1.4.6 0 1.2.2 1.7.1 1.8-.3 2-.9 3.3-2 4.2-3.4 8.9-1.7 10 3.7.1.7.6 5.3-.2 5.8-.8-1-1.6-1.9-2.4-2.9 2.6.4 4.5 1.8 5.6 4 .6 1 1.9.9 2.6 0 2-2.1 4-2.2 6-.2.7-.7 1.4-1.4 2.1-2.1-.8-.7-1.5-1.4-2.3-2.1-2.6-2.2-2.4-4.7.7-7.6 4.2.2 6.4 4.3 4.6 8-2.3 4.5-7.8 5.1-12.3 4.7v3c6.5.4 13.1.8 19.6 1.2 1.9.1 1.9-2.9 0-3-6.5-.4-13.1-.8-19.6-1.2-1.9-.1-1.9 2.8 0 3 5.2.5 10.9-.5 14.2-5.1 2.6-3.7 2.4-9.3-1.4-12.2-2.9-2.2-7.3-1.8-9.7 1.1-3.6 4.5.6 9.4 4 12.4 1.4 1.3 3.5-.7 2.1-2.1-3.2-3.4-8.1-2.8-10.7.8h2.6c-2.5-4.1-7.2-7.1-11.9-4.6-3.6 2-4.9 7.2-1.6 10.2 3.4 3.1 8.3.7 10.1-2.8 2-4 1.6-10.3-1.3-13.9s-8-4-11.6-1.3c-2.5 1.9-1 2.2-5.2 1.9-1.4-.1-2.6-.4-4 0-1.5.4-2.9 1.3-3.6 2.8-.5 1.1-.7 2.1-.2 3.3.1.4 1.2 1.3 1.1 1.6-.4 2.2-6.2-1.8-7.2-2-4.5-.7-7.5 4.1-6.2 8 .6 1.8 3.5 1.1 2.9-.8z"/><path d="m1301.4 311.4v34.4c0 1.9 3 1.9 3 0 0-11.5 0-22.9 0-34.4 0-1.9-3-1.9-3 0z"/><path d="m1304.6 311.2h55.2c1.9 0 1.9-3 0-3-18.4 0-36.8 0-55.2 0-2 0-2 3 0 3z"/><path d="m1303.7 348.2h55.2c1.9 0 1.9-3 0-3-18.4 0-36.8 0-55.2 0-1.9 0-1.9 3 0 3z"/><path d="m1358.3 311v35.3c0 1.9 3 1.9 3 0 0-11.8 0-23.5 0-35.3 0-2-3-2-3 0z"/><path d="m1304.8 312.7v32.7c0 1.9 3 1.9 3 0 0-10.9 0-21.8 0-32.7 0-2-3-2-3 0z"/><path d="m1305.9 345.6h52.7c1.9 0 1.9-3 0-3-17.6 0-35.1 0-52.7 0-2 0-2 3 0 3z"/><path d="m1306.7 313.3h51c1.9 0 1.9-3 0-3-17 0-34 0-51 0-1.9 0-1.9 3 0 3z"/><path d="m1357 312.2v31.4c0 1.9 3 1.9 3 0 0-10.5 0-21 0-31.4 0-1.9-3-1.9-3 0z"/><path d="m1316.4 337.7c8.3-4 17.7-5.9 26.1-1 1.7 1 3.2-1.6 1.5-2.6-9.3-5.5-19.8-3.5-29.1 1-1.8.8-.2 3.4 1.5 2.6z"/><path d="m1316.4 333.5c-1.8-2.2 2.8-2.9 3.4-4.1.5-.9-.2-3.7.1-3.6.9.2 1.9-.4 1.9-1.4-.1-4.7 5 2.8 4.8 2.5.6.7 1.2 1.4 2.2 1.8 1.4.6 4.4-1 5.2-.4.9.8 2.1.4 2.5-.7.8-.3 1.6-.6 2.5-.8-.1 1.3 1.7 2 2.6 1.1 2.7 2.1 3.1 3.8 1.1 5-1.5 1.3.7 3.4 2.1 2.1 2.6-2.2 4.4-6 2-9.1-2-2.6-5.3-2.4-7.4-.1.9.4 1.7.7 2.6 1.1.2-2.2-1.1-4-3.5-4.2-2.6-.2-4.1 2-4.9 4.2.8-.2 1.7-.4 2.5-.7-1.7-1.4-2-.8-3.9-.9-5.1-.2-3.6-3.4-6.9-5.3s-6.5 1-6.5 4.4c.6-.5 1.3-1 1.9-1.4-1.5-.3-3.3-.4-4.3.9-1.1 1.4.6 2.5.2 3.5-.6 1.6-3.5 1.1-4.2 3.2-.7 2 .7 3.8 1.9 5.2s3.3-.8 2.1-2.3z"/><path d="m1328.4 307.2c-.6-1.3-.9-2.6-.6-4 .1-.9.9-3.8 2.3-3.4 1 .3 2 2.9 2.2 3.8.5 1.6.6 3.1.4 4.8-.2 1.9 2.8 1.9 3 0 .3-2.7-.1-5.3-1.4-7.7-1-2-2.9-4.7-5.5-3.9-2 .6-3.3 3.1-3.8 5-.6 2.4-.3 4.8.8 7 .9 1.7 3.4.2 2.6-1.6z"/><path d="m1305.8 362.9v45.9c0 1.9 3 1.9 3 0 0-15.3 0-30.6 0-45.9 0-2-3-2-3 0z"/><path d="m1307.3 361.8h46.5c1.9 0 1.9-3 0-3-15.5 0-31 0-46.5 0-2 0-2 3 0 3z"/><path d="m1352.3 360.3v48.4c0 1.9 3 1.9 3 0 0-16.1 0-32.3 0-48.4 0-1.9-3-1.9-3 0z"/><path d="m1308.5 412.2h44c1.9 0 1.9-3 0-3-14.7 0-29.3 0-44 0-1.9 0-1.9 3 0 3z"/><path d="m1322.2 378.2c-.7 5.8 3 12.1 9.2 12.8 6.5.7 11.3-4.3 11.1-10.6-.1-1.9-3.1-1.9-3 0 .2 4.7-3.4 8.5-8.3 7.5-4.5-.9-6.4-5.5-6-9.7.2-1.9-2.8-1.9-3 0z"/><path d="m1332.3 390.3c-.2 1.4.7 2.5.3 3.8-.6 2-3.2 3.9-4.5 5.4-2.2 2.6-3.8 5.2-3.9 8.7-.1 1.9 2.9 1.9 3 0 .2-4.6 4.1-7.3 6.7-10.7.8-1 1.6-2.1 1.9-3.3.3-1.4-.7-2.5-.5-3.9.2-1.9-2.8-1.9-3 0z"/><path d="m1325.4 390.2c-3.5-.2-10.1-2.4-8.5-7.3.8-2.6 4.1-2.7 5.5-4.5 1.9-2.3.3-3.6-1.2-5.3-1.4-1.6-4.3-2.2-.4-5.7 2.2-2 5.8.5 7.6 2 1.1 1 1.3 2.1 2.8 2.8 1 .5 2.3.7 3.4.3 1.8-.8 3.8-6.1 5.7.5.2.8 1.1 1.3 1.8 1 .1 2.1.2 4.1.2 6.2-1.2 1.5.9 3.6 2.1 2.1 1.9-2.4 4.1-5.4 2.7-8.6-1.1-2.4-3.5-3.3-5.9-2.6.6.3 1.2.7 1.8 1-.8-2.7-2.1-5.5-5.2-5.7-1-.1-1.9.1-2.7.6.2-.1-1.2 1.5-1.2 1.5-2.1 1.1-2.7-.8-3.9-2-2.1-2.3-3.8-3.6-7.2-3.1-2.6.4-6.3 2.2-7.2 4.9-1.1 3.2 1.6 4.1 2.8 6.5 1.3.5 1.3 1.1-.1 1.8-.3.6-.7.9-1.2 1.1-.4.3-1 .5-1.4.9-.8.9-1.4 1.8-1.8 2.9-2.3 7.3 5.2 11.2 11.2 11.6 2.2.2 2.2-2.8.3-2.9z"/><path d="m1326.5 360c-.1-1.5-.6-4.2 1.2-5.1 1.9-.9 1.6 2 1.4 3-.4 1.9 2.5 2.7 2.9.8.3-1.6.5-3.4-.3-4.9-.8-1.4-2.3-2.2-3.8-2-4.1.5-4.6 4.9-4.3 8.2 0 1.9 3 1.9 2.9 0z"/><path d="m1309.5 362.6v44.1c0 1.9 3 1.9 3 0 0-14.7 0-29.4 0-44.1 0-2-3-2-3 0z"/><path d="m1311.3 408.9h39.9c1.9 0 1.9-3 0-3-13.3 0-26.6 0-39.9 0-1.9 0-1.9 3 0 3z"/><path d="m1352.3 407.8c0-15.4 0-30.9 0-46.3 0-1.9-3-1.9-3 0v46.3c0 1.9 3 1.9 3 0z"/><path d="m1312 363h39.5c1.9 0 1.9-3 0-3-13.2 0-26.3 0-39.5 0-1.9 0-1.9 3 0 3z"/></g><path d="m753.2 903.4c-6.7-5.4-15.8-6.5-23.2-2.8-8.7 4.4-13.4 14.7-11.2 25 1.8 13.7 3.6 27.5 5.4 41.2-36.5 16.7-53.9 27.6-52.4 32.6 1.8 6.1 31.4 3.5 88.9-7.6-2.5-29.5-5-58.9-7.5-88.4z" fill="#191919"/><path d="m728.8 578.8c-1.4 20.1-3.7 52.7-7.6 93.1-4.8 50.7-6.8 101.8-13.6 152.3-7 52.4-14.7 88.3 3 100.8 6.4 4.5 14.1 4.5 19.6 3.8 5.8-1.5 11.6-3.1 17.4-4.6 5.7 2.8 13.4 5.5 19.6 2.3 18.2-9.3 1-57 2.3-125.4.9-45.1 9.6-90.1 21.2-149.2 8.8-45.1 15.5-68.5 3-80-15.2-14.1-48.9-.6-64.9 6.9z" fill="#fff" stroke="#161616" stroke-miterlimit="10" stroke-width="2"/><path d="m757.5 569.4c3.8 17.7 8.1 44.5 7.8 77.1-.5 52.6-12.8 85.8-21.7 125.3-8.1 35.8-15.9 88-12.4 155.3 5.3-1 10.7-2.1 16-3.1 1.2.9 6.1 4.2 12.9 3.6 1-.1 7.6-.8 11.9-5.7 5.3-6 4.2-14.9 3.6-19.2-2.3-18.7-2.8-37.6-4.7-56.4-2-19.8-1.7-35.2-1.6-44.5.1-7 .6-20.1 3.1-41.4 4.4-37.1 8.4-43.4 17.1-97.3 6.6-40.6 3.7-33.2 6.2-42.4 2.3-8.2 6.2-20.1 4.1-35.2-1-7.1-2.8-11.1-5.7-14-6-5.9-14.9-5.8-20.2-5.7-7.1.1-12.9 2.1-16.4 3.6z" fill="#6d6c6c" opacity=".14"/><path d="m786 671.4c-7.5 16.6-15.4 38.4-20.2 64.7-8.4 46.4-.1 70-7.2 119.6-2.6 18.3-7.5 41.3-17.1 67.3 3.6.5 7.2 1 10.9 1.6 5.4 1.9 12.2 3.3 17.1 0 8.8-5.9 5.8-23.2 3.6-43.5 0 0-2.7-25-3.1-72.5-.2-26.3 2.2-45.7 5.7-74 3.1-25.4 6.9-46.9 10.3-63.2z" fill="#6d6c6c" opacity=".1"/><path d="m879.4 895.8c-6.7-5.4-15.8-6.5-23.2-2.8-8.7 4.4-13.4 14.7-11.2 25 1.8 13.7 3.6 27.5 5.4 41.2-36.5 16.7-53.9 27.6-52.4 32.6 1.8 6.1 31.4 3.5 88.9-7.6-2.6-29.5-5.1-58.9-7.5-88.4z" fill="#191919"/><path d="m842.1 575.7c5.8 47.5 12 96.5 18.6 147.4 4.5 35 5.6 43.3 9.1 56.9 6 23.6 14.1 43.7 21.1 80.2 3.3 17 5 30.8-2.9 41.2-5.9 7.8-17.4 14-20 11.6-1.1-1.1-.4-3.9.6-6.4-2.4 2.3-17.6 16.6-29.7 11.6-7.1-2.9-10-11.2-11.4-15.7-14.2-43.5-16.5-87.1-16.5-87.1-.9-16.8-3.1-34-7.4-68.5-3.2-25.3-9.2-61.9-22.1-106.4-1.9-1.2-20.5-13.6-21.7-36.5-.1-1.7-.8-19 10.1-30.7 14.4-15.5 45.2-16.6 72.2 2.4z" fill="#fff" stroke="#161616" stroke-miterlimit="10" stroke-width="2"/><path d="m761.4 587.7c-3.6 10.4-4.6 22.1 1.1 32 4.9 8.5 12.8 17.8 22.4 20.8 1.8.6 2.6-2.3.8-2.9-8.8-2.7-16.2-11.6-20.6-19.4-5.3-9.2-4.1-20-.8-29.7.7-1.8-2.2-2.6-2.9-.8z" fill="#fff"/><path d="m758.4 606.3c.9 15.6 10.9 28.6 26.1 32.9 1.9.5 2.7-2.4.8-2.9-13.8-3.9-23-15.7-23.9-30-.1-1.9-3.1-1.9-3 0z" fill="#fff"/><path d="m802.7 562.7c2.6 7.8 6.6 20.4 11 36 12.8 45.2 34.9 123.5 36.3 217.7.2 15.7.8 95.6 8 96 1.7.1 4.5-4.3 8.3-3.3 2.6.7 2.7 3.1 5 4 5 1.9 13.3-6.7 17.3-13 1.4-2.2 4.6-7.2 5.3-14.3.4-3.2.1-5.5-1-12.3-1.6-10.5-2.4-15.7-3-18.3-4.3-20.3-12-39.8-18.3-67.3-2.7-11.6-4.5-22-6.7-34-.7-3.8-2.6-14.9-4.7-28.7-4.7-31.6-6.2-53.3-9.3-81-1.7-15.1-4.3-36.4-8.3-62.3-1-2.2-2.8-5.6-6-8.7-1.1-1-4.5-4.1-13.7-7-4.5-1.6-11.4-3.3-20.2-3.5z" fill="#6d6c6c" opacity=".14"/><path d="m867.7 773c5.5 25.6 9.2 47.5 11.7 64.7 4 28 4.2 38.2-1 49-7.8 16.3-24 26-23 27.3.4.5 3-.5 12-6.3.3 2.4 1 5.1 3 6 5.1 2.2 16.4-8.8 21.3-19.3 6.7-14.5 1.8-29.4-2.7-43.7-5.6-18.1-13.1-43.9-21.3-77.7z" fill="#6d6c6c" opacity=".2"/><path d="m734.7 405.7c-9.8-1.3-18.8 11.5-36.3 37-12 17.4-20.4 32.7-25.9 43.3-11.9-.6-23.8-1.2-35.7-1.9-11.1-.6-22.2-1.2-33.3-1.9-4.4-1.5-11-3.7-19.1-5.6-13.1-3.2-40.2-8.5-41.9-3.8-.5 1.5 1.3 4.6 12.9 11.9-.8 2-3.7 10.4 0 20.1.6 1.5 3.9 9.6 11.7 13.8 10 5.3 23.8 2.4 33.9-7.5 7.8 4.7 50.1 29.4 89.9 12.5 13-5.5 22.1-13.9 30.2-21.3 14.7-13.5 34-31.2 34.5-55.8.4-17.8-9-39.2-20.9-40.8z" fill="#fff" stroke="#161616" stroke-miterlimit="10" stroke-width="2"/><path d="m541.7 474c3.9 3.9 7.7 8.1 12.1 11.4 4.3 3.2 9.2 5 14.2 6.7 1.4.5 2-1.7.6-2.2-5.3-1.8-10.4-3.8-14.8-7.4-3.8-3.1-7.1-6.7-10.5-10.1-1-1-2.6.6-1.6 1.6z" fill="#161616"/><path d="m589 484.3c-3.8 1.4-7.3 3.6-10 6.6-1.9 2.1-4.7 5.4-4 8.4.7 3.4 4.9 3.4 7.7 3.4 4.5-.1 8.8-1.4 12.7-3.7 1.2-.7.1-2.7-1.1-1.9-2.5 1.5-5.2 2.6-8.1 3.1-2.5.4-9.8 1.3-8.5-3.4 1.3-4.8 7.7-8.7 12-10.3 1.2-.5.6-2.7-.7-2.2z" fill="#161616"/><path d="m554.1 486.5c-2.1 6.7-2.1 13.2 5.1 16.4 5.3 2.4 13 1.2 15.7-4.5.6-1.3-1.3-2.4-1.9-1.1-2.2 4.7-8.5 5.5-12.9 3.5-6.1-2.7-5.5-8.2-3.8-13.7.4-1.4-1.7-2-2.2-.6z" fill="#161616"/><path d="m553.6 501.3c.4 5.7 3.9 11.3 9.9 12.4 5.3 1 10.2-2.2 12.1-7 .5-1.3-1.6-1.9-2.2-.6-1.6 4-6.1 6.4-10.4 5.2-4.4-1.3-6.9-5.7-7.2-10 0-1.4-2.3-1.4-2.2 0z" fill="#161616"/><path d="m575.2 507.8c7.8-1.4 5.2 12.5-.5 12-1.4-.1-1.4 2.1 0 2.3 4.8.4 7.4-5.5 7.7-9.5.3-4.4-3.5-7.6-7.8-6.8-1.4.1-.8 2.2.6 2z" fill="#161616"/><path d="m574.6 499.7c0-.1.1-.1.1-.2-.4.1-.7.2-1.1.3.8.2.9 2.8.8 3.3-.1 1.3-.6 2.5-1.6 3.5s.6 2.6 1.6 1.6c1.5-1.5 2.3-3.6 2.2-5.8-.1-1.6-.6-4.4-2.5-4.8-.4-.1-.8 0-1.1.3 0 .1-.1.1-.1.2-.8 1.1.7 2.7 1.7 1.6z" fill="#161616"/><path d="m569.2 492.3c2.4.1 3.9 2.4 3.3 4.7-.4 1.4 1.8 2 2.2.6 1-3.7-1.5-7.4-5.4-7.5-1.6-.1-1.6 2.2-.1 2.2z" fill="#161616"/><path d="m749.5 421.8c-2.9 8.5-7.7 20-15.3 32.6-7.8 12.9-16.5 27.2-33.4 39.2-6.2 4.4-24.9 17.4-52.6 18.4-26.1.9-45.3-9.3-52.9-13.9-6 4.5-10.1 4.8-12.8 4.2-2.4-.6-3.3-1.8-7.5-3.1-3.6-1.1-6.5-1.3-8.1-1.4-5.8-.4-11.8-.8-13.4 1.9-2.1 3.7 4.7 11.6 10 15.9 2.4 1.9 6.6 5.2 12.5 6.1 13.9 2.2 24.2-9.9 24.8-10.6 3.4 2.1 8.3 5 14.5 7.8 10.1 4.7 24.4 11.2 43.4 11.1 21.6 0 37.2-8.5 40.4-10.3 3.8-2.2 10.9-8.4 25-20.9 13.1-11.6 17.9-16.7 22.3-23.7 2.6-4.1 5.9-9.4 7.8-16.7 4.1-15.6-1.4-29.8-4.7-36.6z" fill="#6d6c6c" opacity=".12"/><path d="m754.8 433.8c-1.9 6.6-5.2 15.9-10.9 26.2-5.3 9.6-19.3 34.3-49 49.5-8.8 4.5-24 12.1-45.1 11.7-23.4-.5-40.2-10.5-47.3-15.3-4 2.5-10 5.7-17.8 7.8-10.4 2.7-17.9 1.8-18.1 3.3s7 4.7 14.5 4.5c10.5-.3 17.9-7.2 20.6-10 6.9 5 32.7 22.6 66.5 18.1 26.1-3.5 42.6-18.2 57.1-31.2 10.8-9.7 23.3-21.2 28.1-40.4 2.5-9.8 2.1-18.4 1.4-24.2z" fill="#6d6c6c" opacity=".15"/><path d="m724.1 406.1c-2 2.3-5.5 7.2-8.5 30.6-4 31.8-1.9 57 0 75.8 2.2 22.3 5.3 49.2 9.8 79.8 17.4 5.4 46.3 11.5 81 6 15.7-2.5 29.1-6.8 39.9-11.3-2.3-25-2-45.2-1.3-58.5 3.4-68.7 6.5-87.8 6.5-87.8 2.3-13.7 4.4-22.2-.7-29.9-5.1-7.9-14.8-10.6-45.7-12.6-46.9-3.2-70.5-4.5-81 7.9z" fill="#ec615b"/><path d="m791.6 398.4c3.1 11 5.7 22.7 7.9 35.1 11.4 65.2 3.4 123-7.9 166.1 5.8-.4 11.9-1.1 18.4-2.2 13.8-2.3 25.9-5.9 35.9-9.6-1.4-19.9-1.8-36.9-1.8-50.4.1-37.7 3.4-66.5 4.8-78 1.8-14 3.7-25.7 5.3-34.2.4-2.4.8-6.8-1.3-11.4-2.4-5.3-6.9-8.1-8.8-9.2-6.5-3.9-13.1-3.9-16.7-3.9-8.6-.3-20-.8-35.8-2.3z" fill="#6d6c6c" opacity=".14"/><path d="m853.4 422c-17.7 45.9-21.4 78.7-21 100.8.1 8.3 1 28.2-9.6 49.1-6.5 12.7-15 21.6-21.5 27.2 6-.8 12.6-2 19.7-3.9 9.1-2.4 17-5.4 23.7-8.3-.9-25.8-.8-53.8.9-83.7 1.5-29.2 4.3-56.3 7.8-81.2z" fill="#6d6c6c" opacity=".16"/><path d="m839.8 406.4c12.3-5.4 29 10.4 39.8 20.5 11.8 11.1 35.7 33.6 36.9 70.4 1 30.7-14.3 52.9-21.9 62.2-11.9 14.5-25.4 22.1-33.4 25.8-.1 3.4-.6 8.8-2.9 14.7-1.3 3.2-7.9 20-20.5 20.7-1.7.1-7.5.1-14.2-6.2-.4 0-2.4-.3-3.7-2.1-1.2-1.7-1.3-4.2-.1-6.2-.3-.2-2.9-1.5-3.5-4.6-.7-3.4 1.6-5.9 1.8-6 .1-1.7.5-3.9 2.1-5 1.8-1.2 3.7-.2 6.6-.4 1.9-.2 4.6-.9 7.8-3.7-3.6-1-11.7-3.6-11.5-6.5.1-3.4 11.8-5.4 14.4-5.9 6.4-1.1 11.9-.9 15.6-.6 2.2-4 5.4-9.9 9.2-17 6.4-12 9.6-18 11.5-22.3 3.6-8 7.6-20.1 8.7-37-4.5-4.4-11.4-10.7-20.2-17.6-19-14.8-25.4-15.1-30.6-23.5-9.8-15.7-5.1-43.9 8.1-49.7z" fill="#fff" stroke="#161616" stroke-miterlimit="10" stroke-width="2"/><path d="m817.1 594.4c1.6 7.8 13.6 6 18.4 3.2 1.2-.7.1-2.7-1.1-1.9-3.5 2.1-13.9 4.4-15.1-1.8-.3-1.5-2.5-.9-2.2.5z" fill="#161616"/><path d="m818.3 606.9c6 4.3 14.8 2.3 21.1-.6 1.3-.6.2-2.5-1.1-1.9-5.6 2.5-13.5 4.3-18.8.6-1.2-.9-2.3 1.1-1.2 1.9z" fill="#161616"/><path d="m822.8 615.7c6.2 3 13.4 2.6 19.1-1.4 1.2-.8.1-2.8-1.1-1.9-5 3.5-11.3 4.1-16.8 1.4-1.3-.7-2.5 1.2-1.2 1.9z" fill="#161616"/><path d="m835.5 410.2c-2 6.8 21.4 13.3 41.9 35.3 7.1 7.6 21.6 23.1 25 46.1 4.3 28.5-10.6 51.3-16.1 59.5-10.6 16.1-23.5 25.6-31.3 30.5 0 2.8-.4 13-8.2 21.6-1.6 1.8-7.9 8.7-17.1 9.7-5.3.6-10.1-.9-10.3-.3-.1.6 3.6 1.4 8.4 4.7 3.1 2.1 3.2 3 4.7 3.7 6.2 2.9 16-5.9 17.1-6.8 10.2-9.3 11.4-23.1 11.6-28.2 2.3-1.3 5.4-3.1 9-5.5 3.7-2.5 14.6-9.7 23.2-19.2 2.3-2.5 14-15.8 19.7-37.1 2-7.5 7.5-29.2-1.3-52.9-3.9-10.3-8.9-17-17.9-28.7-8-10.5-13.9-15.7-25.3-25.8-8.2-7.3-13.1-10.7-19.7-11.1-4.5-.3-12.3.8-13.4 4.5z" fill="#6d6c6c" opacity=".18"/><path d="m904 456c3.4 8.4 8.3 23.7 7.6 43.2-.7 21.2-7.6 36.6-10.3 41.9-12.4 25-32 38.4-41.6 44 7.8-2.9 19.1-8.4 29.8-18.7 31.3-30.2 26.7-72.8 26.3-75.8-1.8-15-7.2-26.7-11.8-34.6z" fill="#6d6c6c" opacity=".18"/><path d="m789.4 329.4c6 20.1 8.2 31.8 16.7 50.2 4 8.6 7.8 15.4 10.5 19.9-8.7 4.1-22.8 9.4-40.9 10.1-10.7.4-19.9-1-27-2.6.7-5.5 1.1-12.4.6-20.2-.7-9.8-2.8-18.1-4.8-24.2-9.6-1.2-19.3-2.5-28.9-3.7-1.9-4.2-3.8-8.5-5.7-12.7-2.6-.1-5.3-.2-7.9-.3 2-5.8 5-14.9 8.5-26.2 6.5-21.3 6.4-24.3 9.9-29.1 9.7-13.1 31.4-21.5 45.7-14.4 8.5 4.1 13.5 20.5 23.3 53.2z" fill="#fff" stroke="#161616" stroke-miterlimit="10" stroke-width="2"/><path d="m702.2 347.5c5 .1 9.9-.3 14.8-1 1.9-.3 1.1-3.2-.8-2.9-4.7.7-9.3 1-14 .9-1.9 0-1.9 3 0 3z" fill="#161616"/><path d="m700.3 309.3c2.8-1.5 6.5-.7 8.3 1.9 1.1 1.6 3.7.1 2.6-1.5-2.8-4-8.1-5.3-12.4-3-1.7.9-.2 3.5 1.5 2.6z" fill="#161616"/><path d="m723.9 312.8c3.6-1.1 7.5.1 9.6 3.3 1.1 1.6 3.7.1 2.6-1.5-2.9-4.2-8.1-6.2-13-4.6-1.8.5-1.1 3.4.8 2.8z" fill="#161616"/><path d="m724.6 324c-.1-1.1.1-2.2.7-3.2.1-.2.3-.5.5-.7-.4-.5-.6-.6-.5-.1-.2.2-.1 1.2-.2 1.5-.1.5-.3 1-.5 1.5-.1.2-.2.4-.3.5.5.9.8 1 1 .3.4-.4.6-1.3.9-1.8.3-.6.6-1.2.9-1.8.8-1.5-1.1-3-2.4-1.8-.7.7-1.1 1.4-1.4 2.3-.5 1.9 2.4 2.7 2.9.8.1-.5.3-.7.6-1-.8-.6-1.6-1.2-2.4-1.8-.7 1.4-1.5 2.8-2.1 4.3-.5 1.1-.4 2.4.7 3.1 2.7 1.7 4.4-1.8 4.9-3.9.4-2 .4-6.2-2.9-5.3-2.6.8-3.6 4.6-3.5 6.9.2 2.1 3.2 2.1 3.1.2z" fill="#161616"/><path d="m716.9 295.8c.7-4.3 2.4-11.5 7.1-18.9 1.7-2.6 5.2-8.1 10.9-11.8 10.9-7.1 27.6-6.5 39.7 2.2 11.9 8.5 17.8 23.7 15.2 38.9-24.2-3.4-48.6-6.9-72.9-10.4z" fill="#5222d0"/><path d="m677.1 296.1c37.5 4.7 74.9 9.4 112.4 14.1 5.7.7 5.7-8.3 0-9-37.5-4.7-74.9-9.4-112.4-14.1-5.8-.7-5.7 8.3 0 9z" fill="#161616"/><path d="m765.6 305.2c-6.6 2.4-10.5 7-14.9 12.3-9.4 11.4-6.6 15.6-13.2 22.7-10.5 11.3-21.2 4.6-30.6 15.7-8 9.4-6.9 22.1-6.6 25 .3 2.8 1.7 14.1 11 21.9 8.1 6.7 18.9 8.2 19.6 6.7.2-.5-.6-1.9-6.6-5.9 1.7 1.2 4.5 2.7 8 3.4 4.1.7 8 0 8-.6 0-.5-2.2-.4-3.9-2.2-1-1.1-1.4-2.3-1.7-3.4 3.3 2.1 7.4 4 11.3 2.8 10.7-3.2 12.6-26.9 13.2-34.8 2-25.4-5.3-39.3 3.6-48.3.7-.8 4.3-4.4 8.3-3.6 5 .9 8.8 8.6 7.2 13.7-1.4 4.4-6.4 5.6-6.1 6.5.5 1 8.9-.6 16-6.2 2.6-2 4.7-3.7 5.8-6.7 1.9-5.3-.3-11.3-3.3-14.9-6.2-7.2-17.9-6.7-25.1-4.1z" fill="#161616" stroke="#161616" stroke-miterlimit="10" stroke-width="2"/><path d="m775.5 338c-1.6.2-3.9.2-4-.3-.1-.3.5-.7.5-.7s-1.9 2.4-4.3 2.7c-1.1.1-2.1-.2-2.8-.6 4.2 8.9 8.5 19.6 12.2 32 4 13.6 6.3 25.9 7.6 36.5 4.3 0 10.4-.5 17.4-2.7 5.7-1.8 10.2-4.2 13.6-6.3-9-14.1-13.6-25.4-16.2-33.1-1.2-3.6-3.8-12.1-5-16.3-2.3-7.6-4.2-13.9-5.4-18.1-.6.6-1.7 1.5-3 2.4-1.9 1.4-5.6 4-10.6 4.5z" fill="#6d6c6c" opacity=".22"/><path d="m748.6 260.7c9.7 1.9 17 9.7 18.2 18.8 1.3 10.9-6.7 18.4-7.5 19 10.4 1.3 20.7 2.5 31.1 3.8.2-2.4.3-5.7-.4-9.5-2-12.2-9.2-19.8-10.7-21.3-2.4-2.4-10.9-10.5-23.6-11.2-2.9-.1-5.4.2-7.1.4z" fill="#321693"/><path d="m528.5 698.4c.5 5.4.9 10.9 1.4 16.3l509.1.9c1.5-5.4 3-10.9 4.5-16.3-171.6-.3-343.3-.6-515-.9z" fill="#fff"/><path d="m535.3 699.1h5.4c1.9 0 1.9-3 0-3-1.8 0-3.6 0-5.4 0-2 0-2 3 0 3z" fill="#161616"/><path d="m529.8 702h200.7s133.8 0 200.7 0h113.8c3.9 0 3.9-6 0-6-66.9 0-133.8 0-200.7 0s-133.8 0-200.7 0c-37.9 0-75.9 0-113.8 0-3.8 0-3.8 6 0 6z" fill="#161616"/><path d="m531.2 716.8h395.2 111.8c3.9 0 3.9-6 0-6-131.7 0-263.5 0-395.2 0-37.3 0-74.5 0-111.8 0-3.9 0-3.9 6 0 6z" fill="#161616"/><path d="m547.1 731.4v251.3 71.8c0 3.9 6 3.9 6 0 0-83.8 0-167.6 0-251.3 0-23.9 0-47.9 0-71.8 0-3.8-6-3.8-6 0z" fill="#161616"/><path d="m964.9 727.4v227.5 64.6c0 3.9 6 3.9 6 0 0-75.8 0-151.7 0-227.5 0-21.5 0-43 0-64.6 0-3.9-6-3.9-6 0z" fill="#161616"/><path d="m133.8 984.5h228.8 229.8 128.9c3.9 0 3.9-6 0-6-76.3 0-152.5 0-228.8 0-76.6 0-153.2 0-229.8 0-43 0-85.9 0-128.9 0-3.9 0-3.9 6 0 6z" fill="#161616"/><path d="m836.3 987.2h202.7 201.7 114.8c3.9 0 3.9-6 0-6-67.6 0-135.1 0-202.7 0-67.2 0-134.5 0-201.7 0-38.3 0-76.5 0-114.8 0-3.9 0-3.9 6 0 6z" fill="#161616"/><path d="m548.3 731.3v245.8 70c0 3.9 6 3.9 6 0 0-81.9 0-163.9 0-245.8 0-23.3 0-46.6 0-70 0-3.9-6-3.9-6 0z" fill="#161616"/><path d="m549.6 732.6v244.8 69.7c0 3.9 6 3.9 6 0 0-81.6 0-163.2 0-244.8 0-23.2 0-46.4 0-69.7 0-3.8-6-3.8-6 0z" fill="#161616"/><path d="m964.4 725.9v222.7 63.6c0 3.9 6 3.9 6 0 0-74.2 0-148.5 0-222.7 0-21.2 0-42.4 0-63.6 0-3.8-6-3.8-6 0z" fill="#161616"/><path d="m965.8 727.3v220.8 62.9c0 3.9 6 3.9 6 0 0-73.6 0-147.2 0-220.8 0-21 0-42 0-62.9 0-3.9-6-3.9-6 0z" fill="#161616"/><path d="m534.5 717.3c5.2 6.3 9.8 12.9 13.9 19.9 2 3.3 7.2.3 5.2-3-4.4-7.4-9.4-14.4-14.9-21.1-2.5-3-6.7 1.2-4.2 4.2z" fill="#161616"/><path d="m554.8 735.1c7.4-6.2 14.7-12.5 22.1-18.7 2.9-2.5-1.3-6.7-4.2-4.2-7.4 6.2-14.7 12.5-22.1 18.7-3 2.5 1.3 6.7 4.2 4.2z" fill="#161616"/><path d="m947.7 720.4c6.2 3.9 12.4 7.8 18.6 11.7 3.3 2.1 6.3-3.1 3-5.2-6.2-3.9-12.4-7.8-18.6-11.7-3.3-2-6.3 3.2-3 5.2z" fill="#161616"/><path d="m983.8 713.3c-5.2 4.2-10.2 8.7-14.9 13.4-2.7 2.7 1.5 7 4.2 4.2 4.7-4.7 9.7-9.2 14.9-13.4 3-2.4-1.2-6.6-4.2-4.2z" fill="#161616"/><path d="m952.4 720.7c8 1.2 15.8 1.5 23.8.7-.5-1.9-1-3.7-1.5-5.6-3.3 2.1-6.7 2.7-10.6 3.1-2.2.3-4.4 3.3-2.1 5.1 3.1 2.5 6.2 3.3 10.1 2.3 3.7-.9 2.2-6.7-1.6-5.8-1.5.6-3 .3-4.3-.8-.7 1.7-1.4 3.4-2.1 5.1 4.8-.5 9.5-1.2 13.6-4 2.3-1.5 1.7-5.9-1.5-5.6-7.4.7-14.9.6-22.3-.5-3.7-.4-5.3 5.4-1.5 6z" fill="#161616"/><path d="m981.4 715c-2.8-.6-5.6-.2-8 1.4-1.3.9-1.9 2.6-1.1 4.1.8 1.3 2.8 2 4.1 1.1 1.1-.8 2.2-1.1 3.3-.8 1.6.3 3.2-.5 3.7-2.1.5-1.5-.4-3.4-2-3.7z" fill="#161616"/><path d="m541.3 720.1c1.8 1.2 8.5 4.3 8.2 6.9l3-3c-.4 0-1.6-4.6-1.9-5.4-.9 1.5-1.7 3-2.6 4.5 6-.3 11.7-1.5 17.2-3.7-1-1.7-1.9-3.3-2.9-5-3.4 3.5-7 6.8-10.9 9.8l4.1 4.1c3.6-6.1-1.5-11.1-6.7-13.7-.5 1.9-1 3.7-1.5 5.6 4.1-.2 8.2-.3 12.3-.1 3.9.2 3.8-5.8 0-6-4.1-.2-8.2-.2-12.3.1-2.8.2-4.3 4.2-1.5 5.6 1.8.9 6.2 2.8 4.6 5.5-1.4 2.4 1.6 6 4.1 4.1 4.3-3.3 8.4-6.8 12.1-10.7 1.9-2 0-6.2-2.9-5-5.1 2-10.2 3.2-15.6 3.5-2.4.1-3.5 2.4-2.6 4.5 1.7 3.8 1.6 8.4 7.1 8.3 1.8 0 2.8-1.4 3-3 .8-6-7.1-9.4-11.1-12-3.4-2.2-6.4 3-3.2 5.1z" fill="#161616"/><path d="m574.1 695.3c0-4.9 0-9.8 0-14.8 0-1.9-3-1.9-3 0v14.8c0 2 3 2 3 0z" fill="#e8e8e8"/><path d="m572.6 681.8h83c1.9 0 1.9-3 0-3-27.7 0-55.3 0-83 0-1.9 0-1.9 3 0 3z" fill="#e8e8e8"/><path d="m654.1 680.3v14.1c0 1.9 3 1.9 3 0 0-4.7 0-9.4 0-14.1 0-2-3-2-3 0z" fill="#e8e8e8"/><path d="m576.4 687.4h63.5c1.9 0 1.9-3 0-3-21.2 0-42.3 0-63.5 0-1.9 0-1.9 3 0 3z" fill="#e8e8e8"/><path d="m590.5 693.1h48.7c1.9 0 1.9-3 0-3-16.2 0-32.5 0-48.7 0-1.9 0-1.9 3 0 3z" fill="#e8e8e8"/><path d="m593.9 680c0-3.4 0-6.7 0-10.1 0-1.9-3-1.9-3 0v10.1c0 1.9 3 1.9 3 0z" fill="#e8e8e8"/><path d="m594.3 670.8h72.3c1.9 0 1.9-3 0-3-24.1 0-48.2 0-72.3 0-1.9 0-1.9 3 0 3z" fill="#e8e8e8"/><path d="m656.5 681.1h9.4c1.9 0 1.9-3 0-3-3.1 0-6.3 0-9.4 0-1.9 0-1.9 3 0 3z" fill="#e8e8e8"/><path d="m665.1 669.6v9.7c0 1.9 3 1.9 3 0 0-3.2 0-6.5 0-9.7 0-2-3-2-3 0z" fill="#e8e8e8"/><path d="m608.8 675.8h17.3c1.9 0 1.9-3 0-3-5.8 0-11.5 0-17.3 0-2 0-2 3 0 3z" fill="#e8e8e8"/><path d="m638.6 678.3h15.4c1.9 0 1.9-3 0-3-5.1 0-10.3 0-15.4 0-1.9 0-1.9 3 0 3z" fill="#e8e8e8"/><path d="m610.7 666.4c-2.4-2.3-2.9-5.8-2.7-9 .4-5.3 5.2-5.5 9.2-3.9 1.8.7 2.6-2.2.8-2.9-4.5-1.8-10.4-1.7-12.4 3.6-1.7 4.5-.5 11 3 14.3 1.4 1.4 3.5-.8 2.1-2.1z" fill="#e8e8e8"/><path d="m616.7 652c9.4-4.2 13.3 11.6 5.2 15.6-1.7.9-.2 3.4 1.5 2.6 11.6-5.8 4.8-26.6-8.2-20.8-1.8.8-.2 3.4 1.5 2.6z" fill="#e8e8e8"/><path d="m617 651.2c-.5-3.2-1.7-6.1-3.6-8.7-1.1-1.6-3.7-.1-2.6 1.5 1.7 2.4 2.8 5 3.3 8 .3 1.9 3.2 1.1 2.9-.8z" fill="#e8e8e8"/><path d="m615.6 646.1c.3-.8.7-1.5 1.2-2.2.2-.3.5-.7.8-1 .1-.2.3-.3.5-.5-.5-1-.8-1.2-1-.7-.5.5-1 1.8-1.3 2.5-.5.9-1.1 1.7-1.7 2.5-1.1 1.6 1.5 3.1 2.6 1.5 1.1-1.5 2.1-3.1 2.9-4.8.7-1.4 1.1-3.2-.7-3.9-3-1.1-5.3 3.6-6.1 5.7-.8 1.9 2.1 2.7 2.8.9z" fill="#e8e8e8"/><path d="m1107 847.4c.4 4.7.8 9.5 1.2 14.2 46.1-.4 92.2-.8 138.3-1.2-.5-4.5-1-9-1.5-13.4-46.1.2-92 .3-138 .4z" fill="#fff"/><path d="m1107.9 863.2h138.2c3.9 0 3.9-6 0-6-46.1 0-92.1 0-138.2 0-3.8 0-3.9 6 0 6z" fill="#161616"/><path d="m1108.8 849.5h135.6c3.9 0 3.9-6 0-6-45.2 0-90.4 0-135.6 0-3.9 0-3.9 6 0 6z" fill="#161616"/><path d="m1104.1 847.4v10.2c0 3.9 6 3.9 6 0 0-3.4 0-6.8 0-10.2 0-3.9-6-3.9-6 0z" fill="#161616"/><path d="m1243.1 847.4v13.6c0 3.9 6 3.9 6 0 0-4.5 0-9.1 0-13.6 0-3.9-6-3.9-6 0z" fill="#161616"/><path d="m1175.7 861.9v172.3c0 3.9 6 3.9 6 0 0-57.4 0-114.8 0-172.3 0-3.9-6-3.9-6 0z" fill="#161616"/><path d="m1175.5 1033.3c-10.3 6.1-20.6 12.2-31 18.3-3.3 2-.3 7.2 3 5.2 10.3-6.1 20.6-12.2 31-18.3 3.4-2 .3-7.2-3-5.2z" fill="#161616"/><path d="m1177.2 1037.6c11.7 6.5 23.3 13.1 35 19.6 3.4 1.9 6.4-3.3 3-5.2-11.7-6.5-23.3-13.1-35-19.6-3.4-1.9-6.4 3.3-3 5.2z" fill="#161616"/><path d="m1146.3 1059c22.2-.2 44.3-.9 66.5-2 3.8-.2 3.9-6.2 0-6-22.1 1.1-44.3 1.8-66.5 2-3.9 0-3.9 6 0 6z" fill="#161616"/><path d="m1149.6 864.1c9 12.8 17.2 26.2 24.6 40 1.8 3.4 7 .4 5.2-3-7.4-13.8-15.6-27.2-24.6-40-2.2-3.2-7.4-.2-5.2 3z" fill="#161616"/><path d="m1209.7 859.8c-13.1 12.5-24.3 26.7-33.4 42.3-2 3.3 3.2 6.4 5.2 3 8.9-15.2 19.8-28.9 32.5-41 2.8-2.7-1.5-7-4.3-4.3z" fill="#161616"/><path d="m965.3 977.4c-.8 14.3-1.5 28.6-2.3 42.9-38.2 16.6-56.6 27.5-55.1 32.5 1.7 6 31.1 3.9 88-6.1.4-24.5.8-49 1.1-73.5-10.5 1.4-21.1 2.8-31.7 4.2z" fill="#161616"/><path d="m1083.9 745.7c-8.5 7.6-20.6 18.6-34.7 32.2-33.6 32.6-58.3 56.5-75 81.2-13.8 20.5-34.3 59.5-35.9 123.3 13.8 3.8 31.2 7 51.4 6.8 6.8-.1 13.3-.5 19.2-1.2-2.6-14.5-4.7-37.2.6-63.8 3.7-18.7 9.9-33.7 15.5-44.6 45-20 75.4-44.5 94.8-63.2 19.6-18.9 41.9-40.5 35.9-55.8-5.5-14.5-34.8-20.1-71.8-14.9z" fill="#ec615b"/><path d="m1131.2 745.8c-15.1 20.1-33.2 41.9-54.9 64.1-27.2 27.9-54.1 50.4-78.2 68.3-8.4 36.9-16.8 73.8-25.2 110.6 3.6.6 7.7 1.1 12.2 1.1 9.1.2 16.9-1.1 22.9-2.7-1.9-12.6-3.2-29.9-.8-50 3-24.8 10.6-44.3 16.8-57.2 22.6-10.4 40.5-21 53.4-29.4 0 0 40.4-26.2 71.7-66.4.7-.9 3.1-4 5-8.8 1.5-3.9 3.4-8.7 1.9-13.7-1.4-4.5-4.8-7-8.4-9.5-2.8-1.9-8.3-5.2-16.4-6.4z" fill="#6d6c6c" opacity=".18"/><path d="m1023.2 880.5c-4.3 8-8.5 16.4-12.6 25.2-13.8 29.7-23.4 58.1-30.1 83.9 9.2-.4 18.3-.8 27.5-1.1-2.1-12.1-3.7-28.4-1.9-47.3 2.5-26.7 10.6-47.5 17.1-60.7z" fill="#6d6c6c" opacity=".16"/><path d="m1027 991.2c4.6 14.3 9.2 28.6 13.8 42.9-34 20.4-50.1 32.7-48.2 36.8 2.3 5 31.6-2.4 88-22.2-7.8-22.7-15.6-45.4-23.4-68.1-10.1 3.4-20.2 7-30.2 10.6z" fill="#161616"/><path d="m1191.9 765.1c7.1 36.1-3.6 56.4-8.7 64.2-10.2 15.6-23.8 20.4-63.5 40.1-15.5 7.7-39.1 19.7-68 35.6 2 12.7 5.2 27.3 10.3 43.2 4.8 15 10.4 28.1 15.8 39.1-5.3 5.1-16 14.1-32.3 19.3-17.6 5.7-32.7 4-40.1 2.7-15.7-31-19.7-58.2-20.8-74.8-1.3-20-2.8-42.7 8.9-65.1 9-17.2 17.7-18.8 54.1-46.6 54.7-41.7 60.2-57.3 88.4-63.1 23.1-4.7 43.6.8 55.9 5.4z" fill="#ec615b"/><path d="m1154.5 758.4c.5 11.6-.4 29.8-9.7 48.4-7.8 15.7-18.2 26.9-52.5 50.1-30.5 20.6-54.8 36.5-70.5 46.7 10 33.5 20 67 30 100.5 3-1 6.6-2.5 10.3-4.6 6.8-3.9 11.6-8.6 14.7-12.2-4.4-9.4-8.8-19.9-12.7-31.4-6.4-18.4-10.4-35.6-12.9-50.5 24.8-13.8 42.2-22.8 52.4-27.9 15.2-7.6 22.7-11.4 30.4-15.1 2.6-1.2 8.4-3.9 16-7.9 8.5-4.4 12.7-6.5 16.5-9.1 3.1-2.1 10.9-7.6 17.2-16.7 9-13 9.8-26.6 10.4-36.5.4-6.4.3-15.7-2.1-26.6-5.2-2.2-12.2-4.6-20.6-6-6.5-1.2-12.2-1.4-16.9-1.2z" fill="#6d6c6c" opacity=".22"/><path d="m1194 785.1c-1.6 5.3-4.5 13-9.6 21.3-15.7 25.2-39.7 35.2-56.5 43.6-19.9 10-46.7 26.5-76.5 55 8.4-4.7 18.7-10.3 30.7-16.7 21.2-11.3 31.7-16.9 42.6-22.1 8.5-4 18.2-8.3 32.7-16 10.4-5.5 16.1-8.9 21.5-15.2 6.1-7.1 8.8-14.2 10.6-19 2.2-6 5.3-16.7 4.5-30.9z" fill="#6d6c6c" opacity=".11"/><path d="m1051 906c.1 8.4.7 17.4 1.8 26.9 2.8 24.3 8.7 45.2 15 62.1 1.8-1 3.9-2.4 6.1-4.3 1.4-1.2 2.6-2.4 3.5-3.5-4.2-8.7-8.3-18.4-12.2-28.9-6.9-19-11.3-36.7-14.2-52.3z" fill="#6d6c6c" opacity=".17"/><path d="m1126 569.3c-12.5 4.2-14.7 19.1-23.1 36.1 0 0-13.2 27-42.1 49.2-10.5 8.1-33.2 22.4-71.1 24.9-3.7-1.5-9.4-3.5-16.6-4.7-10.3-1.7-24.7-4.2-34.4 4.1-4.4 3.8-9.3 11-7.1 15.4 2.7 5.4 14.7 3.3 34.4 2.4 27.3-1.2 26 1.8 45 .6 17-1.1 43.8-2.7 71.7-19 26.7-15.5 40.5-36.2 43.8-41.5 6.4-10 9.3-18.1 15.2-34.4 7.8-21.4 6.5-26.2 4.3-29-3.8-5.2-13-6.5-20-4.1z" fill="#fff" stroke="#161616" stroke-miterlimit="10" stroke-width="2"/><path d="m977.8 682.6c-6.3 1.2-15.4 1.5-20 6.7-2.6 3-2.2 8.3 2.6 8.3 1.4 0 1.5-2.3 0-2.3-2.4-2.5-2.2-4.5.8-5.9 1-.7 2.1-1.2 3.3-1.7 1.3-.5 2.6-.8 3.9-1.1 3.3-.7 6.6-1.3 10-1.9 1.4-.2.8-2.3-.6-2.1z" fill="#161616"/><path d="m930.6 691.9c5.9 7.4 15.1-1.2 22.2.7 1.4.4 2-1.8.6-2.2-3.1-.8-5.8-.4-8.9.6-4.1 1.3-9.1 3.5-12.4-.7-.8-1.1-2.4.5-1.5 1.6z" fill="#161616"/><path d="m934.2 682.8c.2 3 2.2 4.2 5.1 4.2 6.5 0 12.2-2.6 18.7-.5 1.4.4 2-1.7.6-2.2-3.3-1.1-6.5-1.2-9.9-.9-2.4.2-12 2.9-12.2-.7-.2-1.3-2.4-1.3-2.3.1z" fill="#161616"/><path d="m944 676.6c1 2.4 2.7 3.5 5.3 3.9 5.1.7 9.5.9 14.2 3 1.3.6 2.5-1.4 1.1-1.9-2.6-1.1-5.2-2.1-8-2.6-3.2-.6-9.1.4-10.5-3-.5-1.3-2.7-.7-2.1.6z" fill="#161616"/><path d="m1138.1 569.6c-5.7 1.4-4 16.7-7 30.9-5 22.9-21.3 37.2-39.3 53-12.2 10.7-26.5 23.3-48.3 28.9-7.5 1.9-19.9 4-33.2 4.7-18 .9-26.9 1.4-27.5 1.3-3-.3-10.3-1.1-18.1 2.3-1.6.7-6 2.6-5.7 4 .4 2.1 10.8 1.5 34.2 1.3 17.3-.1 15.5.2 20.8 0 10-.4 27.4-1 47-8.1 27.9-10 45.1-27.7 53-35.9 7.6-8 11.8-14.2 13.1-16.1 6.2-9.3 9.1-17.6 14.8-33.9 6.6-19 6.6-24 4-27.9-1.8-2.3-5.1-5.2-7.8-4.5z" fill="#6d6c6c" opacity=".16"/><path d="m933.3 695.1c.7-1.8 3.7-9.2 11.7-13.1 12-5.7 23.7 2 24.2 2.3-2.6 1.4-4.8 2.4-6.4 3-2.5 1.1-3.5 1.3-4.4 2.3-1.5 1.9-1.1 4.7-.7 6.4-3.2.7-7.4 1.2-12.4 1-4.8-.1-8.9-1-12-1.9z" fill="#6d6c6c" opacity=".13"/><path d="m1145.8 586c-4.2 14-13.4 37.6-33.6 60.4-27.5 31.1-59.8 43.2-74.5 47.7 11.3-2 53.3-10.9 82.9-49.3 17.5-22.8 23.1-46 25.2-58.8z" fill="#6d6c6c" opacity=".14"/><path d="m1122.6 570.1c-6.3 6.9-10.8 16-13.7 49.6-4.3 49.1 2.5 60.4-5.1 84.7-3.5 11.1-10.7 27.2-27.4 44.5 11.8 7.6 30.9 18 56.5 24 25.3 5.9 46.8 5 60.8 3.4 18-55.3 16.5-100 12.8-127.5-3.5-26.2-11.4-86.5-42.8-94.1-14.9-3.7-31.8 5.3-41.1 15.4z" fill="#fff" stroke="#161616" stroke-miterlimit="10" stroke-width="2"/><path d="m1155.7 554.9c-.5 4.1-1.2 10.2-1.9 17.5-4.7 48.9.8 57.8-2.8 86.6-2 16.4-6.2 47.1-27.8 75.7-9 11.9-18.5 20.2-25.3 25.3 10.9 5.5 27.5 12.4 48.7 15.6 19 2.8 35.1 1.7 46.5 0 3.2-9.2 7-21.7 10-36.7 5.6-27.8 6-51.5 5.3-67.9-1.3-31.7-4.2-99.7-39-113.6-5.4-2.1-10.3-2.5-13.7-2.5z" fill="#6d6c6c" opacity=".12"/><path d="m1207.7 698.5c-1.2-.2-4 12.2-8.1 23.4-5.2 14.5-15 34-35.3 55.1 9.8-.5 19.7-.9 29.5-1.4 3.3-10.6 7.5-26.4 10.9-45.9 2.2-13.1 4.5-30.9 3-31.2z" fill="#6d6c6c" opacity=".24"/><path d="m1182 568.8c11.3 2.2 16.1 20.1 20.1 35.8 4 15.8 11.7 48 .9 90.4-4.5 17.5-8.5 33.8-22.4 50.3-18.1 21.6-41.2 30-52 33.1-12 8.3-18.2 12.5-21.7 14.7-2.5 1.6-4 2.5-6.7 4.4-3.9 2.8-4.6 3.7-6.5 4.5-2 .8-5.2 1.4-10-.1-.4.1-3.5.5-5.8-1.8-1.4-1.4-1.7-3-1.7-3.7-.3 0-2.2-.2-3.5-1.8-1.2-1.5-1.3-3.6-.4-5.4-.4-.8-.8-1.9-.8-3.3-.5-7 7.8-12.6 12.4-15.8 4.9-3.4 14.6-8.8 29.6-10.2 8.1-4.3 20.2-12 30.9-24.9 3.4-4 26.1-32.2 24.3-70.1-.7-15.9-6.4-45.5-9.6-73.1-.2-2-.8-7.4 2.1-12.6 4.2-7.1 13.8-11.7 20.8-10.4z" fill="#fff" stroke="#161616" stroke-miterlimit="10" stroke-width="2"/><path d="m1072.6 789.9c1.4 0 1.5-2.3 0-2.3-1.4 0-1.4 2.3 0 2.3z" fill="#161616"/><path d="m1071.5 788.7v.7c.1 1.2 1.4 1.5 2.1.6 4-5.3 9.4-9.2 15.7-11.2 1.4-.4.8-2.6-.6-2.2-6.9 2.2-12.7 6.4-17.1 12.2.7.2 1.4.4 2.1.6 0-.2 0-.4 0-.7 0-1.4-2.3-1.4-2.2 0z" fill="#161616"/><path d="m1077.1 796.8c5.1-5.8 11.4-10.2 18.6-13.1 1.3-.5.8-2.7-.6-2.2-7.6 3-14.2 7.5-19.6 13.6-.9 1.2.7 2.8 1.6 1.7z" fill="#161616"/><path d="m1084.6 802.2c5.2-5.9 11.2-10.8 18-14.8 1.2-.7.1-2.7-1.1-1.9-6.9 4.1-13.1 9.1-18.4 15.2-1 1 .6 2.6 1.5 1.5z" fill="#161616"/><path d="m1177.6 572.6c-3.8 5.5 2.4 15.2 5.9 22.4 5.1 10.6 5.9 22.1 7.5 45.1 2.9 41.7-16.5 77.4-17.9 79.9-17.7 31.5-45.2 50.4-53.8 56.2-14.6 9.8-35.3 20.5-33.6 24.6.6 1.5 3.9 1.7 5.3 1.6 4.8-.2 6.8-3.9 13.5-8.6 3.5-2.5 3.4-1.7 9.4-5.3 3.5-2.1 8.5-5.3 14.4-9.8 13.4-3.6 23.3-9.1 29.5-13.1 9-5.8 26.3-19.1 36.9-42.3 3.6-7.9 5-14.2 7.8-26.7 2.9-13.1 7.5-34.6 4.9-62-1.2-12.4-3.3-20.7-6.2-31.6-4.5-17.5-8.6-32.6-16.4-33.6-2.6-.4-5.7 1.1-7.2 3.2z" fill="#6d6c6c" opacity=".13"/><path d="m1206.1 627.3c-.9 0-.7 10.5-5 38.4-3.9 25-5.9 37.8-11.4 49.5-8 17-18.9 27.7-24.2 32.8-15.1 14.6-24.2 15.6-47.3 32.6-12.1 8.9-21.1 17-26.4 22 12-8 23.9-16 35.9-23.9 11-3.2 33.6-11.6 51.8-33.1 12.5-14.8 17.4-29.3 21.2-40.6 13-40.3 7-77.7 5.4-77.7z" fill="#6d6c6c" opacity=".16"/><path d="m1137.1 525.2c-4.5 3.1-5.3 9.1-6 15.7-.7 6.7-.8 18.4 5.3 32.9 3.8 0 8.5-.3 13.7-1.3 4.1-.8 7.7-1.9 10.7-3-.4-13.3-.7-26.6-1.1-39.9-8.4-6.2-17.2-8.1-22.6-4.4z" fill="#fff" stroke="#161616" stroke-miterlimit="10" stroke-width="2"/><path d="m1113.3 458.5c-7 4-10 10.7-15.9 23.7-6.6 14.8-11.2 27.6-13 37-.3 1.4.4 2.8 1.7 3.4 1.7.8 4.7 1.1 6.3 1.5 0 3.9.5 10.6 4 17.8 6.4 13.1 18.2 18.4 21.7 19.8 11.1-1.9 19.3-5.7 24.2-8.6 4.5-2.5 10.3-5.9 16-12.5 5.1-6 7.8-12 9.2-16 2.1 0 5.3-.2 8.6-2 6.8-3.7 12.6-13.4 9-19.3-2.7-4.3-10.1-6.1-17.7-3.3.1-3.2 0-7.6-1.1-12.8-.3-1.3-2.4-10.8-7.2-17.5-9.2-12.9-31.6-19.3-45.8-11.2z" fill="#fff" stroke="#161616" stroke-miterlimit="10" stroke-width="2"/><path d="m1088.1 503.8c-2.5-3.9-8-13.7-7.2-26.7.3-4.4.9-12.8 7-20.7 7.4-9.6 17.7-12.1 20.7-12.7 1.4-2.3 3.8-5.7 7.8-8.5 1.6-1.1 6-3.8 16.8-4.4 5.7-.3 14.4-.1 24.8 2.9 8.1 2.4 13.5 5.8 16.8 8.5 12.7 10 11.7 17.9 27.8 34.1 3.7 3.7 6.3 5 11.9 10.5 5.9 5.7 10.6 11.2 13.2 14.5 5.9 7.5 17 21.7 19.1 40.9.7 6.5 2.7 24.8-8.7 38.8-15.5 19.1-50.5 20.6-71.8 5.4-4-2.8-20.6-14.8-19.7-34.1.8-17.4 15.3-27.8 17.3-29.3 1.7.7 5.2 1.8 8.6.6 7.1-2.6 10.1-13.5 6.4-19-1.5-2.2-3.9-3.1-4.6-3.3-5.8-2-11.2 2.3-11.6 2.6-7.8-5.7-13.7-11.2-17.8-15.5-5.6-5.7-8.4-9.5-9.4-10.9-3.1-4.4-5.4-8.4-6.9-11.4-4.6 1.1-10.6 3.2-16.9 7.3-1.5.9-6.5 4.3-11.7 10.2-.6.7-3.5 4-6.6 9-2.3 4.3-4.1 8.1-5.3 11.2z" fill="#5222d0"/><path d="m1108.5 512.7c0-.1 0-.1 0 0s.1.3.1.5v.1c-.1.2-.2.3-.3.5.2-.2 0-.1-.4.2-.2-.1-.4-.1-.6-.2-.1-.1-.2-.1-.2-.2-.1-.2-.1-.4-.2-.6v-.1c.1-.2.2-.3.3-.5.2 0 .4-.1.6-.1l.8.8v.3c-.5.1-1 .3-1.5.4 0 0-.1-.1-.1-.1-.1-.2-.2-.3-.3-.5.1-.3.3-.6.4-.8.2-.1.4-.1.6-.2h-.1c-.6.1-1.1.5-1.1 1.1s.5 1.2 1.1 1.1 1.2-.4 1.3-1.1c.2-.6-.1-1.3-.7-1.6s-1.2-.1-1.5.4c-.6.8-.2 2.1.8 2.2.9.1 1.7-.6 1.7-1.5s-.9-1.5-1.8-1.3c-.9.3-1.3 1.2-.9 2.1.3.6 1.1.7 1.5.4.7-.1.7-.8.5-1.3z" fill="#161616"/><path d="m1117.3 510.3c.2 1-.2.9-1.1-.3.2-.1.3-.2.5-.3.4 0 .7.2.9.7.1-.6-.6-1.1-1.1-1.1-.7 0-1.1.5-1.1 1.1-.1.9.8 1.6 1.6 1.5 1 0 1.6-1 1.3-1.9s-1.3-1.4-2.2-.9-1 1.4-.6 2.3c.2.6 1.1.7 1.5.4.5-.3.6-.9.3-1.5z" fill="#161616"/><path d="m1114.5 516.9c.6 0 .7.2.3.7 0 .4-.1.6-.4.6-.1-.4-.1-.9-.2-1.3.3-.1.5-.1.8.1-1-1.1-2.6.5-1.6 1.6.7.8 2 .6 2.5-.3s0-2-.9-2.3c-1-.3-2 .4-2.1 1.4 0 1.1 1.1 1.9 2.1 1.7 1.5-.4.9-2.6-.5-2.2z" fill="#161616"/><path d="m1096 538.7c6.2-1.1 11.6-4.7 15.1-10 .8-1.2-1.1-2.3-1.9-1.1-3.2 4.8-8 7.9-13.7 9-1.5.2-.9 2.3.5 2.1z" fill="#161616"/><path d="m1130 469.4c1.8 3.6 4.1 8.4 6.7 14.1 8 17.4 8.9 22.2 9.2 26.4.4 6.3-.7 11.1-1.6 14.5-4.6 18.6-18.1 31-24.8 36.4 3.3-.4 7.3-1.1 11.7-2.6 6.8-2.3 12.1-5.4 15.7-8-.3 3.1-.3 7.9 1.5 13.3 2 6.4 5.6 10.4 8.6 14.2 2.3 2.9 6.4 7.5 12.9 11.2 6.3 3.7 12.2 5 15.8 5.6 8.4 1.9 15.4 1.7 20.1 1.3 6.5-.6 16.8-1.5 26.4-8.9 2.4-1.9 7.9-6.2 11.2-13.8.8-1.8 2-5.2 2.6-14.2.7-10.6 1.2-18-1.3-27.4-2.6-9.7-7.3-17.2-11.9-22.7-8 21.5-27.3 33.9-44.7 31.3-13.6-2.1-21.8-12.8-24.2-16.1 5.3 1.2 10.7-.4 13.8-4.3 3.7-4.4 4.8-12.3 0-16.5-3.8-3.3-10.1-3.4-14.8.3-5.7-4.1-12.2-9.5-18.8-16.5-5.9-6.1-10.5-12.2-14.1-17.6z" fill="#6d6c6c" opacity=".1"/><path d="m1106.9 501.9c-.6-1-.7-2.5.3-3.3-.3.1-.5.2-.8.3h.3c-.3-.1-.5-.2-.8-.3 1 .8.2 3.9-.2 4.8.2-.2.4-.3.7-.5-.1 0-.2.1-.2.1.3 0 .6.1.9.1-.6-.3-.5-1.9-.4-2.3.1-.9.3-1.7.7-2.4-.5.1-1 .3-1.5.4.5.4.6 1.2.5 1.8 0 .3-.1.6-.2.8-.1.5-.3.5.2.6.2.2.4.3.7.5 0-.1-.1-.1-.1-.2-.9-1.1-2.8 0-1.9 1.1.5.6 1.2 1 2 .7.9-.3 1.2-1.2 1.4-2 .5-2 .5-4-1.3-5.3-.5-.4-1.3-.1-1.5.4-1 2-1.6 5.1-.3 7.1.5.8 1.6 1.2 2.4.6.9-.7 1-2.5 1.1-3.5.2-1.5-.1-5.8-2.7-4.5-2.1 1.1-1.9 4.5-.9 6.2.4 1.2 2.4 0 1.6-1.2z" fill="#161616"/><path d="m1102.3 491.7c5.3-.9 9.8 2 13.9 5.1 1.2.9 2.3-1.1 1.1-1.9-4.6-3.5-9.6-6.2-15.6-5.3-1.4.1-.8 2.3.6 2.1z" fill="#161616"/><path d="m1108.3 527.7c1.1.7 2.1 1.6 3 2.6 1 1.1 2.6-.5 1.6-1.6s-2.2-2.1-3.5-3c-1.2-.8-2.3 1.2-1.1 2z" fill="#161616"/></svg>